G04*
G04 #@! TF.GenerationSoftware,Altium Limited,Altium Designer,21.2.1 (34)*
G04*
G04 Layer_Color=16711935*
%FSLAX43Y43*%
%MOMM*%
G71*
G04*
G04 #@! TF.SameCoordinates,D37F3DA0-8DBA-475A-B69E-14A0DF471598*
G04*
G04*
G04 #@! TF.FilePolarity,Negative*
G04*
G01*
G75*
%ADD17R,1.200X1.200*%
%ADD43R,2.103X2.103*%
%ADD44R,1.903X1.503*%
%ADD45R,1.803X1.603*%
%ADD46R,0.603X1.903*%
%ADD47R,1.503X1.503*%
%ADD48R,1.503X1.503*%
%ADD49R,1.103X2.203*%
%ADD50R,2.203X1.103*%
%ADD52R,1.203X1.153*%
%ADD56R,1.153X1.203*%
%ADD60O,1.403X4.203*%
%ADD63C,1.703*%
%ADD64C,2.203*%
%ADD65C,0.628*%
%ADD66C,1.403*%
%ADD67C,1.003*%
G04:AMPARAMS|DCode=81|XSize=1.2mm|YSize=0.7mm|CornerRadius=0.35mm|HoleSize=0mm|Usage=FLASHONLY|Rotation=0.000|XOffset=0mm|YOffset=0mm|HoleType=Round|Shape=RoundedRectangle|*
%AMROUNDEDRECTD81*
21,1,1.200,0.000,0,0,0.0*
21,1,0.500,0.700,0,0,0.0*
1,1,0.700,0.250,0.000*
1,1,0.700,-0.250,0.000*
1,1,0.700,-0.250,0.000*
1,1,0.700,0.250,0.000*
%
%ADD81ROUNDEDRECTD81*%
%ADD82R,1.200X0.700*%
%ADD85R,1.200X1.200*%
G04:AMPARAMS|DCode=86|XSize=1.6mm|YSize=0.7mm|CornerRadius=0.35mm|HoleSize=0mm|Usage=FLASHONLY|Rotation=180.000|XOffset=0mm|YOffset=0mm|HoleType=Round|Shape=RoundedRectangle|*
%AMROUNDEDRECTD86*
21,1,1.600,0.000,0,0,180.0*
21,1,0.900,0.700,0,0,180.0*
1,1,0.700,-0.450,0.000*
1,1,0.700,0.450,0.000*
1,1,0.700,0.450,0.000*
1,1,0.700,-0.450,0.000*
%
%ADD86ROUNDEDRECTD86*%
%ADD87R,1.600X0.700*%
%ADD92R,1.403X4.203*%
%ADD93C,3.203*%
%ADD94O,1.203X3.203*%
%ADD95R,1.103X1.103*%
%ADD96R,1.103X1.403*%
%ADD97R,1.103X1.403*%
%ADD98R,1.303X0.803*%
%ADD99R,0.703X1.603*%
%ADD100O,1.203X3.203*%
%ADD101R,1.203X3.203*%
D17*
X34814Y14884D02*
D03*
X33054D02*
D03*
X10956Y10770D02*
D03*
X12716D02*
D03*
X10956Y8407D02*
D03*
X12716D02*
D03*
D43*
X34925Y4098D02*
D03*
X32525D02*
D03*
D44*
X37254Y4095D02*
D03*
X30194D02*
D03*
D45*
X36925Y6548D02*
D03*
X30525D02*
D03*
D46*
X35025Y6973D02*
D03*
X34375D02*
D03*
X33725D02*
D03*
X33075D02*
D03*
X32425D02*
D03*
D47*
X20853Y29108D02*
D03*
X22696Y25468D02*
D03*
Y27303D02*
D03*
Y29138D02*
D03*
X24539Y29108D02*
D03*
D48*
X20853Y27273D02*
D03*
X20861Y25468D02*
D03*
X24531D02*
D03*
X24539Y27273D02*
D03*
D49*
X30196Y36803D02*
D03*
X28926D02*
D03*
X27656D02*
D03*
X26386D02*
D03*
X25116D02*
D03*
X23846D02*
D03*
X22576D02*
D03*
X21306D02*
D03*
X20036D02*
D03*
X18766D02*
D03*
X17496D02*
D03*
X16226D02*
D03*
X14956D02*
D03*
X13686D02*
D03*
D03*
Y19803D02*
D03*
X14956D02*
D03*
X16226D02*
D03*
X17496D02*
D03*
X18766D02*
D03*
X20036D02*
D03*
X21306D02*
D03*
X22576D02*
D03*
X23846D02*
D03*
X25116D02*
D03*
X26386D02*
D03*
X27656D02*
D03*
X28926D02*
D03*
X30196D02*
D03*
D03*
D50*
X12686Y34018D02*
D03*
Y32748D02*
D03*
Y23858D02*
D03*
Y22588D02*
D03*
D03*
D52*
X34934Y13015D02*
D03*
X32934D02*
D03*
X27050Y3282D02*
D03*
X25050D02*
D03*
D56*
X5356Y15376D02*
D03*
Y13376D02*
D03*
X8138Y10419D02*
D03*
Y8419D02*
D03*
X5979Y10419D02*
D03*
Y8419D02*
D03*
X42352Y13376D02*
D03*
Y15376D02*
D03*
X39075Y13376D02*
D03*
Y15376D02*
D03*
X40714Y13376D02*
D03*
Y15376D02*
D03*
X38755Y59944D02*
D03*
Y61944D02*
D03*
X37307Y59944D02*
D03*
Y61944D02*
D03*
X35859Y59944D02*
D03*
Y61944D02*
D03*
X13761Y59944D02*
D03*
Y61944D02*
D03*
X12313Y59944D02*
D03*
Y61944D02*
D03*
X10865Y59944D02*
D03*
Y61944D02*
D03*
X21956Y13372D02*
D03*
Y15372D02*
D03*
X13701Y13376D02*
D03*
Y15376D02*
D03*
D60*
X91317Y12826D02*
D03*
X96397D02*
D03*
X89034Y64714D02*
D03*
X94114D02*
D03*
X99194D02*
D03*
D63*
X52586Y3397D02*
D03*
Y71892D02*
D03*
X71157Y12013D02*
D03*
X71261Y14552D02*
D03*
X71236Y17067D02*
D03*
X71261Y19632D02*
D03*
Y22172D02*
D03*
Y24712D02*
D03*
D64*
X42385Y44215D02*
D03*
X39845D02*
D03*
X37305D02*
D03*
X34765D02*
D03*
X93796Y18346D02*
D03*
Y46146D02*
D03*
D65*
X16737Y4750D02*
D03*
X19737D02*
D03*
D66*
X42393Y55067D02*
D03*
D67*
X81336Y27192D02*
D03*
X64850Y28218D02*
D03*
X59770Y28320D02*
D03*
X50524Y25678D02*
D03*
X49642Y8760D02*
D03*
X84255Y27202D02*
D03*
X61040Y29996D02*
D03*
X81131Y17296D02*
D03*
X86110Y18515D02*
D03*
X91571Y18312D02*
D03*
X90148Y17144D02*
D03*
X62310Y29146D02*
D03*
X84230Y29107D02*
D03*
X58500Y59612D02*
D03*
Y57758D02*
D03*
X74172Y51103D02*
D03*
X82011Y40817D02*
D03*
X80852Y37362D02*
D03*
X76737Y53897D02*
D03*
X69930Y28308D02*
D03*
X62945Y59460D02*
D03*
X89031Y61721D02*
D03*
X94060Y61568D02*
D03*
X99216Y61416D02*
D03*
X49635Y24738D02*
D03*
X58500Y28320D02*
D03*
X50597Y60304D02*
D03*
X50397Y61543D02*
D03*
X57255Y30047D02*
D03*
X51699Y56557D02*
D03*
X71203Y50130D02*
D03*
X53886Y55294D02*
D03*
X66575Y57035D02*
D03*
X63110Y50597D02*
D03*
X67392Y30846D02*
D03*
X68608Y31763D02*
D03*
X66606Y50567D02*
D03*
X51360Y65304D02*
D03*
X91554Y56665D02*
D03*
X42367Y42189D02*
D03*
X39853Y42164D02*
D03*
X34722Y42139D02*
D03*
X33045Y44069D02*
D03*
X7899Y21615D02*
D03*
X37313Y42189D02*
D03*
X33034Y9003D02*
D03*
X34366Y9093D02*
D03*
X32944Y19101D02*
D03*
X32766Y17323D02*
D03*
X31674Y18210D02*
D03*
X20015Y16408D02*
D03*
X22581Y17374D02*
D03*
X23851Y38913D02*
D03*
X25400Y40361D02*
D03*
X20066Y40411D02*
D03*
X16231Y38938D02*
D03*
X17501Y39802D02*
D03*
X25097Y13153D02*
D03*
X10617Y35052D02*
D03*
X8001Y34036D02*
D03*
X29185Y42926D02*
D03*
X26645Y41275D02*
D03*
X15291Y40538D02*
D03*
X13030D02*
D03*
X11963Y43891D02*
D03*
X11937Y15241D02*
D03*
X7391Y18161D02*
D03*
X8992Y17932D02*
D03*
X8890Y19380D02*
D03*
X25121Y19202D02*
D03*
X23876Y18288D02*
D03*
X27915Y40411D02*
D03*
X18771Y39853D02*
D03*
X7849Y32756D02*
D03*
X40225Y25663D02*
D03*
X27635Y16485D02*
D03*
X31293Y16510D02*
D03*
X28968Y13767D02*
D03*
X31633Y13015D02*
D03*
X31396Y10902D02*
D03*
X24079Y4228D02*
D03*
X21209Y12573D02*
D03*
X16408Y12243D02*
D03*
X27050Y3278D02*
D03*
X28397Y9398D02*
D03*
X28372Y5283D02*
D03*
X18720Y12243D02*
D03*
Y10033D02*
D03*
X13310Y65003D02*
D03*
X33310Y65003D02*
D03*
X38303Y65000D02*
D03*
D81*
X10378Y14326D02*
D03*
X8421Y15241D02*
D03*
D82*
Y13411D02*
D03*
D85*
X26924Y11218D02*
D03*
Y9458D02*
D03*
X25070Y11218D02*
D03*
Y9458D02*
D03*
D86*
X16408Y14224D02*
D03*
Y15174D02*
D03*
Y13274D02*
D03*
X18741D02*
D03*
Y14224D02*
D03*
X24871Y6233D02*
D03*
Y7183D02*
D03*
X27203D02*
D03*
Y5283D02*
D03*
D87*
X18741Y15174D02*
D03*
X24871Y5283D02*
D03*
D92*
X93857Y12826D02*
D03*
D93*
X32004Y60046D02*
D03*
X17479Y57976D02*
D03*
D94*
X20289Y42976D02*
D03*
X21559D02*
D03*
X22829D02*
D03*
X24099D02*
D03*
X25369D02*
D03*
X26639D02*
D03*
X27909D02*
D03*
X29179D02*
D03*
D03*
D95*
X12686Y31478D02*
D03*
Y30208D02*
D03*
Y28938D02*
D03*
Y27668D02*
D03*
Y26398D02*
D03*
Y25128D02*
D03*
D96*
X32309Y10871D02*
D03*
D97*
X35357D02*
D03*
D98*
X21831Y5844D02*
D03*
Y3664D02*
D03*
X14631Y5844D02*
D03*
Y3654D02*
D03*
D99*
X15981Y6724D02*
D03*
X17481D02*
D03*
X20481D02*
D03*
D100*
X11024Y4674D02*
D03*
D101*
X12649D02*
D03*
M02*
