G04*
G04 #@! TF.GenerationSoftware,Altium Limited,Altium Designer,21.2.1 (34)*
G04*
G04 Layer_Physical_Order=2*
G04 Layer_Color=16711680*
%FSLAX43Y43*%
%MOMM*%
G71*
G04*
G04 #@! TF.SameCoordinates,D37F3DA0-8DBA-475A-B69E-14A0DF471598*
G04*
G04*
G04 #@! TF.FilePolarity,Positive*
G04*
G01*
G75*
%ADD12C,0.200*%
%ADD17R,1.200X1.200*%
%ADD18R,1.900X1.900*%
%ADD19R,1.700X1.300*%
%ADD20R,1.600X1.400*%
%ADD21R,0.400X1.700*%
%ADD22R,1.300X1.300*%
%ADD23R,1.300X1.300*%
%ADD24R,0.900X2.000*%
%ADD25R,2.000X0.900*%
%ADD27R,1.000X0.950*%
%ADD33R,0.950X1.000*%
%ADD39O,1.200X4.000*%
%ADD68C,0.300*%
%ADD69C,0.500*%
%ADD71C,0.800*%
%ADD72C,1.500*%
%ADD73C,2.000*%
%ADD74C,0.425*%
%ADD75C,1.200*%
%ADD76C,0.800*%
%ADD77R,1.200X4.000*%
%ADD78C,3.000*%
%ADD79O,1.000X3.000*%
%ADD80R,0.900X0.900*%
G04:AMPARAMS|DCode=81|XSize=1.2mm|YSize=0.7mm|CornerRadius=0.35mm|HoleSize=0mm|Usage=FLASHONLY|Rotation=0.000|XOffset=0mm|YOffset=0mm|HoleType=Round|Shape=RoundedRectangle|*
%AMROUNDEDRECTD81*
21,1,1.200,0.000,0,0,0.0*
21,1,0.500,0.700,0,0,0.0*
1,1,0.700,0.250,0.000*
1,1,0.700,-0.250,0.000*
1,1,0.700,-0.250,0.000*
1,1,0.700,0.250,0.000*
%
%ADD81ROUNDEDRECTD81*%
%ADD82R,1.200X0.700*%
%ADD83R,0.900X1.200*%
%ADD84R,0.900X1.200*%
%ADD85R,1.200X1.200*%
G04:AMPARAMS|DCode=86|XSize=1.6mm|YSize=0.7mm|CornerRadius=0.35mm|HoleSize=0mm|Usage=FLASHONLY|Rotation=180.000|XOffset=0mm|YOffset=0mm|HoleType=Round|Shape=RoundedRectangle|*
%AMROUNDEDRECTD86*
21,1,1.600,0.000,0,0,180.0*
21,1,0.900,0.700,0,0,180.0*
1,1,0.700,-0.450,0.000*
1,1,0.700,0.450,0.000*
1,1,0.700,0.450,0.000*
1,1,0.700,-0.450,0.000*
%
%ADD86ROUNDEDRECTD86*%
%ADD87R,1.600X0.700*%
%ADD88R,1.100X0.600*%
%ADD89R,0.500X1.400*%
%ADD90O,1.000X3.000*%
%ADD91R,1.000X3.000*%
G36*
X53763Y72756D02*
X53984Y72665D01*
X54173Y72519D01*
X54319Y72330D01*
X54410Y72109D01*
X54440Y71878D01*
X54439Y71872D01*
Y68417D01*
X54438D01*
X54470Y68099D01*
X54562Y67794D01*
X54713Y67513D01*
X54915Y67266D01*
X55162Y67064D01*
X55443Y66913D01*
X55749Y66821D01*
X56066Y66789D01*
Y66790D01*
X88258Y66790D01*
X88320Y66663D01*
X88247Y66568D01*
X88157Y66349D01*
X88126Y66114D01*
Y63314D01*
X88157Y63079D01*
X88247Y62860D01*
X88392Y62672D01*
X88468Y62614D01*
Y62137D01*
X88419Y62074D01*
X88349Y61903D01*
X88325Y61721D01*
X88349Y61538D01*
X88419Y61368D01*
X88531Y61221D01*
X88678Y61109D01*
X88848Y61039D01*
X89031Y61015D01*
X89213Y61039D01*
X89384Y61109D01*
X89530Y61221D01*
X89642Y61368D01*
X89713Y61538D01*
X89737Y61721D01*
X89713Y61903D01*
X89642Y62074D01*
X89589Y62143D01*
Y62606D01*
X89675Y62672D01*
X89820Y62860D01*
X89910Y63079D01*
X89941Y63314D01*
Y66114D01*
X89910Y66349D01*
X89820Y66568D01*
X89747Y66663D01*
X89809Y66790D01*
X93338Y66790D01*
X93400Y66663D01*
X93327Y66568D01*
X93237Y66349D01*
X93206Y66114D01*
Y63314D01*
X93237Y63079D01*
X93327Y62860D01*
X93472Y62672D01*
X93624Y62555D01*
Y62116D01*
X93561Y62068D01*
X93448Y61921D01*
X93378Y61751D01*
X93354Y61568D01*
X93378Y61386D01*
X93448Y61215D01*
X93561Y61069D01*
X93601Y61038D01*
Y52056D01*
X91990Y50445D01*
X91206D01*
X91168Y50572D01*
X91256Y50631D01*
X91951Y51326D01*
X92072Y51507D01*
X92115Y51722D01*
Y56246D01*
X92166Y56312D01*
X92236Y56482D01*
X92260Y56665D01*
X92236Y56848D01*
X92166Y57018D01*
X92053Y57164D01*
X91907Y57277D01*
X91737Y57347D01*
X91554Y57371D01*
X91371Y57347D01*
X91201Y57277D01*
X91055Y57164D01*
X90943Y57018D01*
X90872Y56848D01*
X90848Y56665D01*
X90872Y56482D01*
X90943Y56312D01*
X90993Y56246D01*
Y51954D01*
X90627Y51588D01*
X81614D01*
X81399Y51545D01*
X81217Y51424D01*
X80852Y51058D01*
X80410Y51500D01*
X80228Y51622D01*
X80014Y51664D01*
X74591D01*
X74525Y51715D01*
X74354Y51785D01*
X74172Y51810D01*
X73989Y51785D01*
X73819Y51715D01*
X73672Y51603D01*
X73560Y51456D01*
X73490Y51286D01*
X73466Y51103D01*
X73490Y50921D01*
X73560Y50750D01*
X73672Y50604D01*
X73819Y50492D01*
X73989Y50421D01*
X74172Y50397D01*
X74354Y50421D01*
X74525Y50492D01*
X74591Y50543D01*
X79781D01*
X80291Y50033D01*
Y37781D01*
X80240Y37715D01*
X80170Y37545D01*
X80146Y37362D01*
X80170Y37179D01*
X80240Y37009D01*
X80353Y36863D01*
X80499Y36751D01*
X80669Y36680D01*
X80852Y36656D01*
X81034Y36680D01*
X81205Y36751D01*
X81351Y36863D01*
X81425Y36960D01*
X81552Y36917D01*
Y30386D01*
X81587Y30210D01*
X81687Y30062D01*
X82966Y28783D01*
X83115Y28683D01*
X83290Y28648D01*
X83700D01*
X83731Y28608D01*
X83877Y28496D01*
X84047Y28425D01*
X84230Y28401D01*
X84413Y28425D01*
X84583Y28496D01*
X84635Y28535D01*
X84762Y28473D01*
Y27856D01*
X84635Y27793D01*
X84608Y27814D01*
X84438Y27884D01*
X84255Y27908D01*
X84073Y27884D01*
X83902Y27814D01*
X83830Y27758D01*
X81749D01*
X81689Y27804D01*
X81519Y27874D01*
X81336Y27898D01*
X81153Y27874D01*
X80983Y27804D01*
X80837Y27691D01*
X80725Y27545D01*
X80654Y27375D01*
X80630Y27192D01*
X80654Y27009D01*
X80725Y26839D01*
X80837Y26693D01*
X80983Y26581D01*
X81153Y26510D01*
X81336Y26486D01*
X81519Y26510D01*
X81689Y26581D01*
X81762Y26636D01*
X83843D01*
X83902Y26591D01*
X84073Y26520D01*
X84255Y26496D01*
X84438Y26520D01*
X84608Y26591D01*
X84635Y26611D01*
X84762Y26548D01*
Y26194D01*
X84461Y25893D01*
X78670D01*
X74242Y30320D01*
X74093Y30420D01*
X73918Y30455D01*
X68125D01*
X68040Y30582D01*
X68074Y30663D01*
X68098Y30846D01*
X68074Y31029D01*
X68003Y31199D01*
X68106Y31268D01*
X68109Y31264D01*
X68255Y31152D01*
X68425Y31081D01*
X68608Y31057D01*
X68791Y31081D01*
X68961Y31152D01*
X69107Y31264D01*
X69220Y31410D01*
X69290Y31581D01*
X69314Y31763D01*
X69290Y31946D01*
X69220Y32116D01*
X69107Y32263D01*
X69067Y32294D01*
Y42482D01*
X69032Y42657D01*
X68933Y42806D01*
X67065Y44674D01*
Y50036D01*
X67105Y50067D01*
X67218Y50214D01*
X67288Y50384D01*
X67312Y50567D01*
X67288Y50749D01*
X67218Y50920D01*
X67105Y51066D01*
X66959Y51178D01*
X66789Y51249D01*
X66606Y51273D01*
X66423Y51249D01*
X66253Y51178D01*
X66107Y51066D01*
X65995Y50920D01*
X65924Y50749D01*
X65900Y50567D01*
X65924Y50384D01*
X65995Y50214D01*
X66107Y50067D01*
X66147Y50036D01*
Y44818D01*
X66030Y44769D01*
X63569Y47230D01*
Y50067D01*
X63610Y50098D01*
X63722Y50244D01*
X63792Y50415D01*
X63816Y50597D01*
X63792Y50780D01*
X63722Y50950D01*
X63610Y51097D01*
X63463Y51209D01*
X63293Y51279D01*
X63110Y51304D01*
X62928Y51279D01*
X62757Y51209D01*
X62611Y51097D01*
X62499Y50950D01*
X62428Y50780D01*
X62404Y50597D01*
X62428Y50415D01*
X62499Y50244D01*
X62611Y50098D01*
X62652Y50067D01*
Y47040D01*
X62686Y46864D01*
X62786Y46716D01*
X66933Y42569D01*
Y31376D01*
X66892Y31345D01*
X66780Y31199D01*
X66710Y31029D01*
X66686Y30846D01*
X66710Y30663D01*
X66743Y30582D01*
X66658Y30455D01*
X61570D01*
X61539Y30495D01*
X61393Y30608D01*
X61222Y30678D01*
X61040Y30702D01*
X60857Y30678D01*
X60687Y30608D01*
X60541Y30495D01*
X60428Y30349D01*
X60358Y30179D01*
X60334Y29996D01*
X60358Y29813D01*
X60428Y29643D01*
X60541Y29497D01*
X60687Y29385D01*
X60857Y29314D01*
X61040Y29290D01*
X61222Y29314D01*
X61393Y29385D01*
X61481Y29452D01*
X61540Y29448D01*
X61622Y29337D01*
X61626Y29316D01*
X61604Y29146D01*
X61628Y28963D01*
X61698Y28793D01*
X61811Y28647D01*
X61957Y28535D01*
X62127Y28464D01*
X62310Y28440D01*
X62492Y28464D01*
X62663Y28535D01*
X62809Y28647D01*
X62849Y28699D01*
X64193D01*
X64249Y28585D01*
X64238Y28571D01*
X64168Y28401D01*
X64144Y28218D01*
X64168Y28035D01*
X64238Y27865D01*
X64351Y27719D01*
X64391Y27688D01*
Y14083D01*
X63630Y13322D01*
X55870D01*
X55694Y13287D01*
X55546Y13187D01*
X51553Y9195D01*
X50191D01*
X50141Y9259D01*
X49995Y9371D01*
X49825Y9442D01*
X49642Y9466D01*
X49459Y9442D01*
X49289Y9371D01*
X49173Y9282D01*
X49046Y9326D01*
Y24160D01*
X49173Y24211D01*
X49282Y24127D01*
X49452Y24056D01*
X49635Y24032D01*
X49818Y24056D01*
X49988Y24127D01*
X50123Y24230D01*
X58603D01*
X58779Y24265D01*
X58927Y24365D01*
X60098Y25535D01*
X60197Y25684D01*
X60232Y25859D01*
Y27792D01*
X60269Y27820D01*
X60381Y27967D01*
X60452Y28137D01*
X60476Y28320D01*
X60452Y28502D01*
X60381Y28673D01*
X60269Y28819D01*
X60123Y28931D01*
X59952Y29002D01*
X59770Y29026D01*
X59587Y29002D01*
X59417Y28931D01*
X59271Y28819D01*
X59213Y28745D01*
X59056D01*
X58999Y28819D01*
X58853Y28931D01*
X58682Y29002D01*
X58500Y29026D01*
X58317Y29002D01*
X58147Y28931D01*
X58001Y28819D01*
X57888Y28673D01*
X57818Y28502D01*
X57794Y28320D01*
X57818Y28137D01*
X57888Y27967D01*
X58001Y27820D01*
X58041Y27789D01*
Y26503D01*
X57675Y26137D01*
X51054D01*
X51023Y26177D01*
X50983Y26208D01*
Y56141D01*
X51110Y56175D01*
X51200Y56058D01*
X51234Y56032D01*
Y30553D01*
X51269Y30377D01*
X51368Y30228D01*
X51874Y29722D01*
X52023Y29623D01*
X52198Y29588D01*
X56725D01*
X56756Y29548D01*
X56902Y29435D01*
X57072Y29365D01*
X57255Y29341D01*
X57438Y29365D01*
X57608Y29435D01*
X57754Y29548D01*
X57867Y29694D01*
X57937Y29864D01*
X57961Y30047D01*
X57937Y30230D01*
X57867Y30400D01*
X57754Y30546D01*
X57608Y30658D01*
X57438Y30729D01*
X57255Y30753D01*
X57072Y30729D01*
X56902Y30658D01*
X56756Y30546D01*
X56725Y30506D01*
X52389D01*
X52151Y30743D01*
Y56022D01*
X52198Y56058D01*
X52310Y56204D01*
X52381Y56375D01*
X52405Y56557D01*
X52381Y56740D01*
X52310Y56910D01*
X52198Y57057D01*
X52052Y57169D01*
X51882Y57239D01*
X51699Y57263D01*
X51516Y57239D01*
X51346Y57169D01*
X51200Y57057D01*
X51110Y56940D01*
X50983Y56973D01*
Y59717D01*
X51096Y59804D01*
X51208Y59951D01*
X51279Y60121D01*
X51303Y60304D01*
X51279Y60486D01*
X51208Y60657D01*
X51096Y60803D01*
X50950Y60915D01*
X50926Y60925D01*
X50915Y61067D01*
X51009Y61190D01*
X51079Y61360D01*
X51103Y61543D01*
X51079Y61726D01*
X51009Y61896D01*
X50896Y62042D01*
X50750Y62154D01*
X50580Y62225D01*
X50397Y62249D01*
X50214Y62225D01*
X50044Y62154D01*
X49898Y62042D01*
X49855Y61986D01*
X49811D01*
X49635Y61951D01*
X49486Y61851D01*
X49311Y61676D01*
X49211Y61527D01*
X49176Y61351D01*
Y25401D01*
X49173Y25399D01*
X49046Y25466D01*
Y63206D01*
X50438Y64598D01*
X61050D01*
X62239Y63409D01*
Y59460D01*
X62263Y59277D01*
X62333Y59107D01*
X62446Y58961D01*
X62592Y58849D01*
X62762Y58778D01*
X62945Y58754D01*
X63127Y58778D01*
X63298Y58849D01*
X63444Y58961D01*
X63556Y59107D01*
X63627Y59277D01*
X63651Y59460D01*
Y63702D01*
X63627Y63885D01*
X63556Y64055D01*
X63444Y64201D01*
X61841Y65804D01*
X61695Y65916D01*
X61525Y65986D01*
X61342Y66011D01*
X50146D01*
X49963Y65986D01*
X49793Y65916D01*
X49646Y65804D01*
X47841Y63998D01*
X47728Y63852D01*
X47658Y63681D01*
X47634Y63499D01*
Y7733D01*
X47658Y7550D01*
X47728Y7380D01*
X47841Y7234D01*
X48234Y6840D01*
X48381Y6728D01*
X48551Y6657D01*
X48734Y6633D01*
X51566D01*
X51748Y6657D01*
X51919Y6728D01*
X52065Y6840D01*
X56532Y11307D01*
X70375D01*
X70408Y11264D01*
X70627Y11096D01*
X70883Y10990D01*
X71157Y10954D01*
X71431Y10990D01*
X71686Y11096D01*
X71906Y11264D01*
X72074Y11483D01*
X72180Y11739D01*
X72216Y12013D01*
X72180Y12287D01*
X72074Y12542D01*
X71906Y12762D01*
X71686Y12930D01*
X71431Y13036D01*
X71157Y13072D01*
X70883Y13036D01*
X70627Y12930D01*
X70408Y12762D01*
X70375Y12719D01*
X64491D01*
X64442Y12836D01*
X65174Y13568D01*
X65274Y13717D01*
X65309Y13892D01*
Y27688D01*
X65349Y27719D01*
X65461Y27865D01*
X65532Y28035D01*
X65556Y28218D01*
X65532Y28401D01*
X65461Y28571D01*
X65450Y28585D01*
X65507Y28699D01*
X69197D01*
X69282Y28572D01*
X69248Y28491D01*
X69224Y28308D01*
X69248Y28125D01*
X69318Y27955D01*
X69431Y27809D01*
X69471Y27778D01*
Y23623D01*
X69506Y23447D01*
X69605Y23299D01*
X69781Y23123D01*
X69930Y23023D01*
X70105Y22988D01*
X70404D01*
X70467Y22861D01*
X70344Y22702D01*
X70238Y22446D01*
X70202Y22172D01*
X70238Y21898D01*
X70344Y21643D01*
X70512Y21423D01*
X70732Y21255D01*
X70987Y21149D01*
X71261Y21113D01*
X71535Y21149D01*
X71791Y21255D01*
X72010Y21423D01*
X72178Y21643D01*
X72284Y21898D01*
X72320Y22172D01*
X72284Y22446D01*
X72178Y22702D01*
X72056Y22861D01*
X72118Y22988D01*
X75641D01*
X76256Y22373D01*
Y16200D01*
X76291Y16025D01*
X76391Y15876D01*
X77987Y14279D01*
X78136Y14180D01*
X78312Y14145D01*
X87367D01*
X87682Y13831D01*
X87830Y13731D01*
X88006Y13696D01*
X90409D01*
Y11426D01*
X90440Y11191D01*
X90530Y10972D01*
X90675Y10784D01*
X90863Y10640D01*
X91082Y10549D01*
X91317Y10518D01*
X91551Y10549D01*
X91770Y10640D01*
X91958Y10784D01*
X92103Y10972D01*
X92193Y11191D01*
X92224Y11426D01*
Y14226D01*
X92193Y14461D01*
X92103Y14680D01*
X91958Y14868D01*
X91770Y15012D01*
X91551Y15102D01*
X91317Y15133D01*
X91082Y15102D01*
X90863Y15012D01*
X90675Y14868D01*
X90530Y14680D01*
X90503Y14614D01*
X88196D01*
X87917Y14893D01*
X87882Y14928D01*
X87916Y15058D01*
X88374Y15516D01*
X93296D01*
Y15126D01*
X92957D01*
Y10526D01*
X94757D01*
Y15126D01*
X94417D01*
Y15784D01*
X94375Y15999D01*
X94253Y16181D01*
X93960Y16473D01*
X93778Y16595D01*
X93564Y16638D01*
X90802D01*
X90740Y16765D01*
X90760Y16791D01*
X90830Y16961D01*
X90854Y17144D01*
X90830Y17326D01*
X90760Y17497D01*
X90662Y17624D01*
X90694Y17751D01*
X91151D01*
X91218Y17701D01*
X91388Y17630D01*
X91571Y17606D01*
X91753Y17630D01*
X91924Y17701D01*
X92070Y17813D01*
X92182Y17959D01*
X92253Y18129D01*
X92277Y18312D01*
X92253Y18495D01*
X92182Y18665D01*
X92070Y18811D01*
X91924Y18924D01*
X91753Y18994D01*
X91571Y19018D01*
X91388Y18994D01*
X91218Y18924D01*
X91151Y18873D01*
X87735D01*
X87521Y18830D01*
X87339Y18709D01*
X86968Y18338D01*
X86835Y18379D01*
X86827Y18439D01*
X87840Y19453D01*
X92906D01*
X92946Y19333D01*
X92869Y19273D01*
X92661Y19002D01*
X92530Y18686D01*
X92485Y18346D01*
X92530Y18007D01*
X92661Y17691D01*
X92869Y17419D01*
X93141Y17211D01*
X93457Y17080D01*
X93796Y17035D01*
X94136Y17080D01*
X94452Y17211D01*
X94723Y17419D01*
X94932Y17691D01*
X95063Y18007D01*
X95107Y18346D01*
X95063Y18686D01*
X94932Y19002D01*
X94723Y19273D01*
X94646Y19333D01*
X94687Y19453D01*
X95428D01*
X95836Y19045D01*
Y14930D01*
X95755Y14868D01*
X95610Y14680D01*
X95520Y14461D01*
X95489Y14226D01*
Y11426D01*
X95520Y11191D01*
X95610Y10972D01*
X95755Y10784D01*
X95943Y10640D01*
X96162Y10549D01*
X96397Y10518D01*
X96632Y10549D01*
X96850Y10640D01*
X97038Y10784D01*
X97183Y10972D01*
X97196Y11003D01*
X99275D01*
Y15668D01*
X97109D01*
Y15096D01*
X96982Y15025D01*
X96957Y15040D01*
Y19277D01*
X96915Y19492D01*
X96793Y19674D01*
X96056Y20410D01*
X96052Y20413D01*
X96091Y20540D01*
X100526D01*
X100532Y20541D01*
X100763Y20511D01*
X100984Y20420D01*
X101173Y20274D01*
X101319Y20085D01*
X101410Y19864D01*
X101440Y19633D01*
X101439Y19627D01*
Y9417D01*
X101440Y9411D01*
X101410Y9180D01*
X101319Y8960D01*
X101173Y8770D01*
X100984Y8625D01*
X100763Y8533D01*
X100532Y8503D01*
X100526Y8504D01*
X56193Y8504D01*
X56066Y8505D01*
Y8505D01*
X55749Y8474D01*
X55443Y8381D01*
X55162Y8231D01*
X54915Y8028D01*
X54713Y7781D01*
X54562Y7500D01*
X54470Y7195D01*
X54438Y6877D01*
X54439D01*
Y3417D01*
X54440Y3411D01*
X54410Y3180D01*
X54319Y2960D01*
X54173Y2770D01*
X53984Y2625D01*
X53763Y2533D01*
X53532Y2503D01*
X53526Y2504D01*
X53345D01*
X53304Y2624D01*
X53335Y2648D01*
X53503Y2868D01*
X53609Y3123D01*
X53645Y3397D01*
X53609Y3671D01*
X53503Y3927D01*
X53335Y4146D01*
X53116Y4314D01*
X52860Y4420D01*
X52586Y4456D01*
X52312Y4420D01*
X52057Y4314D01*
X51837Y4146D01*
X51669Y3927D01*
X51563Y3671D01*
X51527Y3397D01*
X51563Y3123D01*
X51669Y2868D01*
X51837Y2648D01*
X51869Y2624D01*
X51828Y2504D01*
X48066D01*
X48060Y2503D01*
X47829Y2533D01*
X47609Y2625D01*
X47419Y2770D01*
X47274Y2960D01*
X47182Y3180D01*
X47152Y3411D01*
X47153Y3417D01*
Y26314D01*
X47153D01*
X47124Y26536D01*
X47039Y26743D01*
X46902Y26921D01*
X46725Y27057D01*
X46518Y27143D01*
X46296Y27172D01*
X46074Y27143D01*
X45867Y27057D01*
X45690Y26921D01*
X45554Y26743D01*
X45468Y26536D01*
X45439Y26314D01*
X45439D01*
Y4499D01*
X44673D01*
X44661Y4622D01*
X44521Y5084D01*
X44293Y5510D01*
X43987Y5883D01*
X43614Y6189D01*
X43188Y6417D01*
X42726Y6557D01*
X42246Y6604D01*
X41766Y6557D01*
X41304Y6417D01*
X40878Y6189D01*
X40505Y5883D01*
X40199Y5510D01*
X39972Y5084D01*
X39832Y4622D01*
X39784Y4142D01*
X39789D01*
X39789Y4142D01*
Y2399D01*
X38252D01*
Y3145D01*
X38404D01*
Y5045D01*
X38252D01*
Y9677D01*
X37486D01*
Y12334D01*
X37967Y12816D01*
X38300D01*
Y12576D01*
X39850D01*
Y12576D01*
X39939D01*
Y12576D01*
X41488D01*
Y12576D01*
X41577D01*
Y12576D01*
X43127D01*
Y14176D01*
X41577D01*
Y14176D01*
X41488D01*
Y14176D01*
X39939D01*
Y14176D01*
X39850D01*
Y14176D01*
X38300D01*
Y13937D01*
X37735D01*
X37520Y13894D01*
X37338Y13773D01*
X36528Y12963D01*
X36407Y12781D01*
X36364Y12566D01*
Y9677D01*
X35918D01*
Y9971D01*
X36107D01*
Y11771D01*
X34607D01*
Y9971D01*
X34796D01*
Y9806D01*
X34781Y9786D01*
X34669Y9725D01*
X34549Y9775D01*
X34366Y9799D01*
X34183Y9775D01*
X34013Y9705D01*
X33978Y9677D01*
X33235D01*
X33217Y9685D01*
X33034Y9709D01*
X32851Y9685D01*
X32832Y9677D01*
X31086D01*
Y10158D01*
X31191Y10229D01*
X31213Y10220D01*
X31396Y10196D01*
X31463Y10205D01*
X31559Y10121D01*
Y9971D01*
X33059D01*
Y11771D01*
X31559D01*
Y11683D01*
X31463Y11599D01*
X31396Y11608D01*
X31213Y11584D01*
X31042Y11513D01*
X30896Y11401D01*
X30820Y11302D01*
X30714Y11371D01*
X30757Y11585D01*
Y14324D01*
X32154D01*
Y13984D01*
X34314D01*
Y13790D01*
X34134D01*
Y12240D01*
X35734D01*
Y13790D01*
X35435D01*
Y13984D01*
X35714D01*
Y15784D01*
X35273D01*
Y16078D01*
X35238Y16254D01*
X35139Y16403D01*
X34779Y16762D01*
X34783Y16802D01*
X34822Y16889D01*
X38367D01*
X38616Y16640D01*
Y16176D01*
X38300D01*
Y14576D01*
X39850D01*
Y14576D01*
X39939D01*
Y14576D01*
X41488D01*
Y14576D01*
X41577D01*
Y14576D01*
X43127D01*
Y16176D01*
X42811D01*
Y19964D01*
Y23536D01*
X42776Y23711D01*
X42676Y23860D01*
X40924Y25612D01*
X40931Y25663D01*
X40907Y25845D01*
X40836Y26016D01*
X40724Y26162D01*
X40578Y26274D01*
X40408Y26345D01*
X40225Y26369D01*
X40042Y26345D01*
X39872Y26274D01*
X39726Y26162D01*
X39614Y26016D01*
X39543Y25845D01*
X39519Y25663D01*
X39543Y25480D01*
X39614Y25310D01*
X39726Y25163D01*
X39872Y25051D01*
X40042Y24981D01*
X40225Y24957D01*
X40276Y24963D01*
X41893Y23346D01*
Y20154D01*
X41298Y19560D01*
X38252D01*
Y37770D01*
X37771D01*
Y41659D01*
X37812Y41690D01*
X37924Y41836D01*
X37995Y42007D01*
X38019Y42189D01*
X37995Y42372D01*
X37924Y42542D01*
X37865Y42619D01*
Y43041D01*
X37895Y43053D01*
X39254D01*
X39288Y43039D01*
Y42578D01*
X39241Y42517D01*
X39171Y42347D01*
X39147Y42164D01*
X39171Y41981D01*
X39241Y41811D01*
X39353Y41665D01*
X39500Y41553D01*
X39670Y41482D01*
X39853Y41458D01*
X40035Y41482D01*
X40206Y41553D01*
X40352Y41665D01*
X40464Y41811D01*
X40535Y41981D01*
X40559Y42164D01*
X40535Y42347D01*
X40464Y42517D01*
X40409Y42588D01*
Y43042D01*
X40435Y43053D01*
X41794D01*
X41815Y43044D01*
Y42620D01*
X41756Y42542D01*
X41685Y42372D01*
X41661Y42189D01*
X41685Y42007D01*
X41756Y41836D01*
X41868Y41690D01*
X42014Y41578D01*
X42184Y41507D01*
X42367Y41483D01*
X42550Y41507D01*
X42720Y41578D01*
X42866Y41690D01*
X42979Y41836D01*
X43049Y42007D01*
X43073Y42189D01*
X43049Y42372D01*
X42979Y42542D01*
X42937Y42597D01*
Y43037D01*
X42975Y43053D01*
X43993D01*
Y53645D01*
X42949D01*
Y54360D01*
X43034Y54425D01*
X43179Y54613D01*
X43269Y54832D01*
X43300Y55067D01*
X43269Y55302D01*
X43179Y55521D01*
X43034Y55709D01*
X42846Y55853D01*
X42628Y55944D01*
X42393Y55975D01*
X42158Y55944D01*
X41939Y55853D01*
X41751Y55709D01*
X41606Y55521D01*
X41516Y55302D01*
X41485Y55067D01*
X41516Y54832D01*
X41606Y54613D01*
X41751Y54425D01*
X41828Y54366D01*
Y53645D01*
X40405D01*
Y53805D01*
X40363Y54020D01*
X40241Y54202D01*
X39233Y55210D01*
X39051Y55331D01*
X38837Y55374D01*
X37178D01*
X36420Y56132D01*
Y59144D01*
X39530D01*
Y60744D01*
X35084D01*
Y59144D01*
X35299D01*
Y56132D01*
X34617Y55450D01*
X32029D01*
Y58239D01*
X32357Y58272D01*
X32696Y58375D01*
X33009Y58542D01*
X33283Y58767D01*
X33508Y59041D01*
X33675Y59353D01*
X33778Y59693D01*
X33813Y60046D01*
X33778Y60398D01*
X33675Y60738D01*
X33508Y61050D01*
X33283Y61325D01*
X33009Y61549D01*
X32696Y61717D01*
X32357Y61820D01*
X32029Y61852D01*
Y62762D01*
X34965D01*
X35084Y62744D01*
Y61144D01*
X39530D01*
Y62744D01*
X39214D01*
Y63124D01*
X39179Y63299D01*
X39080Y63448D01*
X38762Y63766D01*
Y64470D01*
X38802Y64501D01*
X38915Y64647D01*
X38985Y64818D01*
X39009Y65000D01*
X38985Y65183D01*
X38915Y65353D01*
X38802Y65500D01*
X38656Y65612D01*
X38486Y65682D01*
X38303Y65706D01*
X38120Y65682D01*
X37950Y65612D01*
X37804Y65500D01*
X37692Y65353D01*
X37621Y65183D01*
X37597Y65000D01*
X37621Y64818D01*
X37692Y64647D01*
X37804Y64501D01*
X37844Y64470D01*
Y63694D01*
X37811Y63682D01*
X37717Y63673D01*
X37632Y63801D01*
X37177Y64256D01*
X37028Y64356D01*
X36852Y64391D01*
X34571D01*
X34009Y64953D01*
X34016Y65003D01*
X33992Y65186D01*
X33921Y65356D01*
X33809Y65502D01*
X33663Y65615D01*
X33493Y65685D01*
X33310Y65709D01*
X33127Y65685D01*
X32957Y65615D01*
X32811Y65502D01*
X32699Y65356D01*
X32628Y65186D01*
X32604Y65003D01*
X32628Y64820D01*
X32699Y64650D01*
X32811Y64504D01*
X32957Y64392D01*
X33127Y64321D01*
X33310Y64297D01*
X33361Y64304D01*
X33868Y63797D01*
X33819Y63679D01*
X32029D01*
Y66396D01*
X31999D01*
X31978Y66479D01*
X31977Y66523D01*
X32215Y66718D01*
X32418Y66964D01*
X32568Y67246D01*
X32661Y67551D01*
X32692Y67869D01*
X32691D01*
Y71872D01*
X32690Y71878D01*
X32720Y72109D01*
X32812Y72330D01*
X32957Y72519D01*
X33147Y72665D01*
X33367Y72756D01*
X33598Y72786D01*
X33604Y72785D01*
X39789D01*
Y71042D01*
X39789Y71042D01*
X39784D01*
X39832Y70562D01*
X39972Y70100D01*
X40199Y69674D01*
X40505Y69301D01*
X40878Y68995D01*
X41304Y68768D01*
X41766Y68628D01*
X42246Y68580D01*
X42726Y68628D01*
X43188Y68768D01*
X43614Y68995D01*
X43987Y69301D01*
X44293Y69674D01*
X44521Y70100D01*
X44661Y70562D01*
X44673Y70685D01*
X45439D01*
Y49886D01*
X45439D01*
X45468Y49664D01*
X45554Y49457D01*
X45690Y49279D01*
X45867Y49143D01*
X46074Y49057D01*
X46296Y49028D01*
X46518Y49057D01*
X46725Y49143D01*
X46902Y49279D01*
X47039Y49457D01*
X47124Y49664D01*
X47153Y49886D01*
X47153D01*
Y71872D01*
X47152Y71878D01*
X47182Y72109D01*
X47274Y72330D01*
X47419Y72519D01*
X47609Y72665D01*
X47829Y72756D01*
X48060Y72786D01*
X48066Y72785D01*
X51828D01*
X51869Y72665D01*
X51837Y72641D01*
X51669Y72422D01*
X51563Y72166D01*
X51527Y71892D01*
X51563Y71618D01*
X51669Y71363D01*
X51837Y71143D01*
X52057Y70975D01*
X52312Y70869D01*
X52586Y70833D01*
X52860Y70869D01*
X53116Y70975D01*
X53335Y71143D01*
X53503Y71363D01*
X53609Y71618D01*
X53645Y71892D01*
X53609Y72166D01*
X53503Y72422D01*
X53335Y72641D01*
X53304Y72665D01*
X53345Y72785D01*
X53526D01*
X53532Y72786D01*
X53763Y72756D01*
D02*
G37*
G36*
X16112D02*
X16333Y72665D01*
X16522Y72519D01*
X16668Y72330D01*
X16759Y72109D01*
X16789Y71878D01*
X16788Y71872D01*
Y67869D01*
X16787D01*
X16818Y67551D01*
X16911Y67246D01*
X17062Y66964D01*
X17264Y66718D01*
X17502Y66523D01*
X17501Y66479D01*
X17481Y66396D01*
X17247D01*
Y64585D01*
X16326Y63664D01*
X13678D01*
X13649Y63735D01*
X13638Y63791D01*
X13734Y63934D01*
X13769Y64110D01*
Y64473D01*
X13809Y64504D01*
X13921Y64650D01*
X13992Y64820D01*
X14016Y65003D01*
X13992Y65186D01*
X13921Y65356D01*
X13809Y65502D01*
X13663Y65615D01*
X13493Y65685D01*
X13310Y65709D01*
X13127Y65685D01*
X12957Y65615D01*
X12811Y65502D01*
X12699Y65356D01*
X12628Y65186D01*
X12604Y65003D01*
X12628Y64820D01*
X12699Y64650D01*
X12811Y64504D01*
X12851Y64473D01*
Y64300D01*
X12815Y64264D01*
X11303D01*
X11127Y64229D01*
X10979Y64129D01*
X10540Y63691D01*
X10441Y63542D01*
X10406Y63367D01*
Y62744D01*
X10090D01*
Y61144D01*
X14536D01*
Y61485D01*
X17247D01*
Y59761D01*
X17126Y59750D01*
X16787Y59647D01*
X16474Y59479D01*
X16200Y59255D01*
X15975Y58980D01*
X15808Y58668D01*
X15705Y58328D01*
X15670Y57976D01*
X15705Y57623D01*
X15808Y57283D01*
X15975Y56971D01*
X16200Y56697D01*
X16474Y56472D01*
X16787Y56305D01*
X17126Y56202D01*
X17247Y56190D01*
Y55450D01*
X14837D01*
X14322Y55966D01*
Y59144D01*
X14536D01*
Y60744D01*
X10090D01*
Y59144D01*
X13200D01*
Y55733D01*
X13243Y55519D01*
X13364Y55337D01*
X13812Y54889D01*
X13269Y54346D01*
X13147Y54164D01*
X13104Y53950D01*
Y44452D01*
X12382D01*
X12316Y44503D01*
X12146Y44573D01*
X11963Y44597D01*
X11781Y44573D01*
X11610Y44503D01*
X11464Y44390D01*
X11352Y44244D01*
X11281Y44074D01*
X11257Y43891D01*
X11281Y43708D01*
X11352Y43538D01*
X11464Y43392D01*
X11610Y43280D01*
X11781Y43209D01*
X11963Y43185D01*
X12146Y43209D01*
X12316Y43280D01*
X12382Y43330D01*
X13484D01*
X14920Y41894D01*
X15102Y41773D01*
X15316Y41730D01*
X17247D01*
Y41072D01*
X19568D01*
X19611Y40945D01*
X19567Y40911D01*
X19455Y40764D01*
X19384Y40594D01*
X19363Y40434D01*
X19344Y40417D01*
X19306Y40397D01*
X19236Y40378D01*
X19124Y40464D01*
X18953Y40535D01*
X18771Y40559D01*
X18588Y40535D01*
X18418Y40464D01*
X18271Y40352D01*
X18196Y40254D01*
X18061Y40241D01*
X18040Y40249D01*
X18000Y40301D01*
X17854Y40413D01*
X17683Y40484D01*
X17501Y40508D01*
X17318Y40484D01*
X17148Y40413D01*
X17001Y40301D01*
X16889Y40155D01*
X16819Y39985D01*
X16795Y39802D01*
X16819Y39619D01*
X16889Y39449D01*
X17001Y39303D01*
X17042Y39272D01*
Y39113D01*
X16915Y39104D01*
X16913Y39121D01*
X16842Y39291D01*
X16730Y39437D01*
X16584Y39550D01*
X16413Y39620D01*
X16231Y39644D01*
X16048Y39620D01*
X15878Y39550D01*
X15731Y39437D01*
X15619Y39291D01*
X15549Y39121D01*
X15525Y38938D01*
X15549Y38755D01*
X15619Y38585D01*
X15731Y38439D01*
X15772Y38408D01*
Y38103D01*
X12936D01*
Y37770D01*
X11506D01*
Y37262D01*
X11073D01*
X10897Y37227D01*
X10749Y37128D01*
X10293Y36672D01*
X10193Y36523D01*
X10158Y36347D01*
Y35582D01*
X10118Y35551D01*
X10006Y35405D01*
X9935Y35235D01*
X9911Y35052D01*
X9935Y34869D01*
X10006Y34699D01*
X10065Y34622D01*
X10002Y34495D01*
X8531D01*
X8500Y34535D01*
X8354Y34647D01*
X8184Y34718D01*
X8001Y34742D01*
X7818Y34718D01*
X7648Y34647D01*
X7502Y34535D01*
X7390Y34389D01*
X7319Y34219D01*
X7295Y34036D01*
X7319Y33853D01*
X7390Y33683D01*
X7502Y33537D01*
X7542Y33506D01*
X7526Y33380D01*
X7496Y33367D01*
X7349Y33255D01*
X7237Y33109D01*
X7167Y32938D01*
X7143Y32756D01*
X7167Y32573D01*
X7237Y32403D01*
X7349Y32256D01*
X7496Y32144D01*
X7666Y32074D01*
X7849Y32050D01*
X8031Y32074D01*
X8202Y32144D01*
X8348Y32256D01*
X8373Y32289D01*
X11386D01*
Y31998D01*
X11506D01*
Y24608D01*
X11386D01*
Y24317D01*
X5418D01*
X5242Y24282D01*
X5093Y24183D01*
X4270Y23360D01*
X4153Y23408D01*
Y70685D01*
X4919D01*
X4932Y70562D01*
X5072Y70100D01*
X5299Y69674D01*
X5605Y69301D01*
X5978Y68995D01*
X6404Y68768D01*
X6866Y68628D01*
X7346Y68580D01*
X7826Y68628D01*
X8288Y68768D01*
X8714Y68995D01*
X9087Y69301D01*
X9393Y69674D01*
X9621Y70100D01*
X9761Y70562D01*
X9808Y71042D01*
X9803D01*
Y72785D01*
X15875D01*
X15881Y72786D01*
X16112Y72756D01*
D02*
G37*
G36*
X100763Y66761D02*
X100984Y66670D01*
X101173Y66524D01*
X101319Y66335D01*
X101410Y66114D01*
X101440Y65883D01*
X101439Y65877D01*
X101439Y44867D01*
X101440Y44861D01*
X101410Y44630D01*
X101319Y44410D01*
X101173Y44220D01*
X100984Y44075D01*
X100763Y43983D01*
X100532Y43953D01*
X100526Y43954D01*
X87606D01*
Y43955D01*
X87289Y43924D01*
X86983Y43831D01*
X86702Y43681D01*
X86455Y43478D01*
X86253Y43231D01*
X86102Y42950D01*
X86010Y42645D01*
X85978Y42327D01*
X85979D01*
Y22167D01*
X85978D01*
X86010Y21849D01*
X86102Y21544D01*
X86253Y21263D01*
X86455Y21016D01*
X86702Y20814D01*
X86983Y20663D01*
X87243Y20584D01*
X87270Y20460D01*
X87268Y20448D01*
X87212Y20410D01*
X86009Y19208D01*
X85927Y19197D01*
X85757Y19127D01*
X85610Y19015D01*
X85498Y18868D01*
X85428Y18698D01*
X85404Y18515D01*
X85428Y18333D01*
X85498Y18162D01*
X85610Y18016D01*
X85652Y17984D01*
X85609Y17857D01*
X81550D01*
X81484Y17908D01*
X81314Y17978D01*
X81131Y18002D01*
X80948Y17978D01*
X80778Y17908D01*
X80632Y17795D01*
X80520Y17649D01*
X80449Y17479D01*
X80425Y17296D01*
X80449Y17113D01*
X80520Y16943D01*
X80531Y16929D01*
X80474Y16815D01*
X78756D01*
X78630Y16941D01*
Y24855D01*
X78626Y24877D01*
X78707Y24975D01*
X84651D01*
X84826Y25010D01*
X84975Y25109D01*
X85545Y25679D01*
X85644Y25828D01*
X85679Y26004D01*
Y49161D01*
X86046Y49527D01*
X92180D01*
X92356Y49562D01*
X92505Y49661D01*
X94384Y51541D01*
X94484Y51690D01*
X94519Y51865D01*
Y61038D01*
X94559Y61069D01*
X94671Y61215D01*
X94742Y61386D01*
X94766Y61568D01*
X94742Y61751D01*
X94671Y61921D01*
X94559Y62068D01*
X94542Y62081D01*
Y62517D01*
X94567Y62528D01*
X94755Y62672D01*
X94900Y62860D01*
X94990Y63079D01*
X95021Y63314D01*
Y66114D01*
X94990Y66349D01*
X94900Y66568D01*
X94827Y66663D01*
X94889Y66790D01*
X98418D01*
X98480Y66663D01*
X98407Y66568D01*
X98317Y66349D01*
X98286Y66114D01*
Y63314D01*
X98317Y63079D01*
X98407Y62860D01*
X98552Y62672D01*
X98640Y62604D01*
Y61816D01*
X98605Y61769D01*
X98534Y61599D01*
X98510Y61416D01*
X98534Y61233D01*
X98605Y61063D01*
X98717Y60917D01*
X98863Y60804D01*
X99033Y60734D01*
X99216Y60710D01*
X99399Y60734D01*
X99569Y60804D01*
X99715Y60917D01*
X99827Y61063D01*
X99898Y61233D01*
X99922Y61416D01*
X99898Y61599D01*
X99827Y61769D01*
X99762Y61854D01*
Y62616D01*
X99835Y62672D01*
X99980Y62860D01*
X100070Y63079D01*
X100101Y63314D01*
Y66114D01*
X100070Y66349D01*
X99980Y66568D01*
X99907Y66663D01*
X99969Y66790D01*
X100526D01*
X100532Y66791D01*
X100763Y66761D01*
D02*
G37*
G36*
X36549Y54417D02*
X36731Y54295D01*
X36946Y54252D01*
X38604D01*
X39095Y53762D01*
X39046Y53645D01*
X33172D01*
Y44855D01*
X33077Y44771D01*
X33045Y44775D01*
X32863Y44751D01*
X32692Y44680D01*
X32546Y44568D01*
X32515Y44528D01*
X32029D01*
Y54329D01*
X34849D01*
X35063Y54371D01*
X35245Y54493D01*
X35859Y55107D01*
X36549Y54417D01*
D02*
G37*
G36*
X17247Y42852D02*
X15548D01*
X14226Y44174D01*
Y53717D01*
X14837Y54329D01*
X17247D01*
Y42852D01*
D02*
G37*
G36*
X24689Y38911D02*
X28131D01*
X28467Y38575D01*
Y38103D01*
X24309D01*
Y38383D01*
X24350Y38414D01*
X24462Y38560D01*
X24533Y38730D01*
X24543Y38811D01*
X24678Y38913D01*
X24689Y38911D01*
D02*
G37*
G36*
X23640Y39960D02*
X23675Y39784D01*
X23712Y39729D01*
X23675Y39615D01*
X23653Y39589D01*
X23498Y39524D01*
X23351Y39412D01*
X23239Y39266D01*
X23169Y39096D01*
X23145Y38913D01*
X23169Y38730D01*
X23239Y38560D01*
X23351Y38414D01*
X23392Y38383D01*
Y38103D01*
X21765D01*
Y39125D01*
X23153Y40513D01*
X23253Y40662D01*
X23288Y40838D01*
Y41072D01*
X23640D01*
Y39960D01*
D02*
G37*
G36*
X22287Y40945D02*
X20982Y39639D01*
X20882Y39490D01*
X20847Y39315D01*
Y38103D01*
X20525D01*
Y39881D01*
X20565Y39912D01*
X20677Y40058D01*
X20748Y40229D01*
X20772Y40411D01*
X20748Y40594D01*
X20677Y40764D01*
X20565Y40911D01*
X20521Y40945D01*
X20564Y41072D01*
X22235D01*
X22287Y40945D01*
D02*
G37*
G36*
X36744Y43041D02*
Y42598D01*
X36701Y42542D01*
X36631Y42372D01*
X36607Y42189D01*
X36631Y42007D01*
X36701Y41836D01*
X36813Y41690D01*
X36854Y41659D01*
Y37770D01*
X35181D01*
Y41608D01*
X35221Y41639D01*
X35333Y41786D01*
X35404Y41956D01*
X35428Y42139D01*
X35404Y42321D01*
X35333Y42492D01*
X35304Y42530D01*
Y43032D01*
X35355Y43053D01*
X36714D01*
X36744Y43041D01*
D02*
G37*
G36*
X32546Y43570D02*
X32692Y43458D01*
X32863Y43387D01*
X33045Y43363D01*
X33077Y43367D01*
X33172Y43283D01*
Y43053D01*
X34174D01*
X34182Y43049D01*
Y42586D01*
X34110Y42492D01*
X34040Y42321D01*
X34016Y42139D01*
X34040Y41956D01*
X34110Y41786D01*
X34223Y41639D01*
X34263Y41608D01*
Y37770D01*
X30946D01*
Y38103D01*
X29385D01*
Y38765D01*
X29350Y38940D01*
X29251Y39089D01*
X28645Y39694D01*
X28497Y39794D01*
X28474Y39798D01*
X28449Y39846D01*
X28432Y39936D01*
X28526Y40058D01*
X28597Y40229D01*
X28621Y40411D01*
X28597Y40594D01*
X28526Y40764D01*
X28414Y40911D01*
X28371Y40944D01*
Y41072D01*
X32029D01*
Y43610D01*
X32515D01*
X32546Y43570D01*
D02*
G37*
G36*
X68149Y42292D02*
Y32294D01*
X68109Y32263D01*
X67997Y32116D01*
X67977Y32070D01*
X67850Y32095D01*
Y42425D01*
X67968Y42473D01*
X68149Y42292D01*
D02*
G37*
G36*
X85575Y50339D02*
X85531Y50310D01*
X84896Y49675D01*
X84797Y49526D01*
X84762Y49351D01*
Y29741D01*
X84635Y29679D01*
X84583Y29719D01*
X84413Y29789D01*
X84230Y29813D01*
X84047Y29789D01*
X83877Y29719D01*
X83731Y29606D01*
X83700Y29566D01*
X83480D01*
X82470Y30576D01*
Y40287D01*
X82510Y40318D01*
X82623Y40464D01*
X82693Y40634D01*
X82717Y40817D01*
X82693Y41000D01*
X82623Y41170D01*
X82510Y41316D01*
X82364Y41429D01*
X82194Y41499D01*
X82011Y41523D01*
X81828Y41499D01*
X81658Y41429D01*
X81540Y41338D01*
X81413Y41379D01*
Y50033D01*
X81846Y50466D01*
X85536D01*
X85575Y50339D01*
D02*
G37*
G36*
X77713Y24665D02*
Y24080D01*
X77595Y24031D01*
X76517Y25109D01*
X76335Y25231D01*
X76121Y25274D01*
X72154D01*
X72010Y25461D01*
X71791Y25629D01*
X71535Y25735D01*
X71261Y25771D01*
X70987Y25735D01*
X70732Y25629D01*
X70516Y25463D01*
X70469Y25470D01*
X70389Y25497D01*
Y27778D01*
X70429Y27809D01*
X70541Y27955D01*
X70612Y28125D01*
X70636Y28308D01*
X70612Y28491D01*
X70578Y28572D01*
X70663Y28699D01*
X73679D01*
X77713Y24665D01*
D02*
G37*
G36*
X11386Y22074D02*
X8430D01*
X8399Y22115D01*
X8252Y22227D01*
X8082Y22297D01*
X7899Y22321D01*
X7717Y22297D01*
X7546Y22227D01*
X7400Y22115D01*
X7288Y21968D01*
X7217Y21798D01*
X7193Y21615D01*
X7217Y21433D01*
X7288Y21262D01*
X7400Y21116D01*
X7443Y21084D01*
X7399Y20957D01*
X6071D01*
X5895Y20922D01*
X5746Y20822D01*
X5032Y20108D01*
X4932Y19959D01*
X4929Y19943D01*
X4802Y19956D01*
Y22594D01*
X5608Y23399D01*
X11386D01*
Y22074D01*
D02*
G37*
G36*
X27176Y17015D02*
X27136Y16984D01*
X27024Y16838D01*
X26953Y16667D01*
X26929Y16485D01*
X26953Y16302D01*
X27024Y16132D01*
X27034Y16118D01*
X26978Y16004D01*
X25251D01*
X24437Y16818D01*
X24255Y16940D01*
X24040Y16983D01*
X23314D01*
X23229Y17110D01*
X23263Y17191D01*
X23287Y17374D01*
X23263Y17556D01*
X23192Y17727D01*
X23080Y17873D01*
X23039Y17904D01*
Y18349D01*
X23050Y18353D01*
X23109Y18321D01*
X23173Y18262D01*
X23194Y18105D01*
X23265Y17935D01*
X23377Y17789D01*
X23523Y17677D01*
X23693Y17606D01*
X23876Y17582D01*
X24059Y17606D01*
X24229Y17677D01*
X24375Y17789D01*
X24487Y17935D01*
X24558Y18105D01*
X24582Y18288D01*
X24570Y18376D01*
X24675Y18503D01*
X25069D01*
X25121Y18496D01*
X25172Y18503D01*
X27176D01*
Y17015D01*
D02*
G37*
G36*
X8433Y19912D02*
X8391Y19879D01*
X8279Y19733D01*
X8208Y19563D01*
X8184Y19380D01*
X8208Y19197D01*
X8279Y19027D01*
X8391Y18881D01*
X8537Y18769D01*
X8693Y18704D01*
X8706Y18659D01*
X8703Y18571D01*
X8639Y18544D01*
X8492Y18432D01*
X8380Y18285D01*
X8310Y18115D01*
X8305Y18076D01*
X8183Y18035D01*
X8092Y18118D01*
X8097Y18161D01*
X8073Y18344D01*
X8003Y18514D01*
X7891Y18660D01*
X7744Y18772D01*
X7574Y18843D01*
X7391Y18867D01*
X7209Y18843D01*
X7038Y18772D01*
X6892Y18660D01*
X6780Y18514D01*
X6709Y18344D01*
X6685Y18161D01*
X6709Y17978D01*
X6780Y17808D01*
X6892Y17662D01*
X7038Y17550D01*
X7209Y17479D01*
X7391Y17455D01*
X7442Y17462D01*
X8896Y16008D01*
X8971Y15957D01*
X8911Y15845D01*
X8841Y15874D01*
X8671Y15896D01*
X8171D01*
X8002Y15874D01*
X7843Y15808D01*
X7708Y15704D01*
X7604Y15568D01*
X7538Y15410D01*
X7516Y15241D01*
X7538Y15071D01*
X7604Y14913D01*
X7708Y14777D01*
X7843Y14673D01*
X8002Y14607D01*
X8171Y14585D01*
X8671D01*
X8841Y14607D01*
X8999Y14673D01*
X9008Y14680D01*
X9434D01*
X9519Y14553D01*
X9495Y14495D01*
X9472Y14326D01*
X9495Y14156D01*
X9560Y13998D01*
X9664Y13862D01*
X9800Y13758D01*
X9919Y13709D01*
Y12954D01*
X9099Y12134D01*
X9000Y11985D01*
X8965Y11809D01*
Y11324D01*
X8913Y11219D01*
X7363D01*
Y10878D01*
X6754D01*
Y11219D01*
X5204D01*
Y10903D01*
X5077Y10888D01*
X4802Y11163D01*
Y12576D01*
X6131D01*
Y12952D01*
X7521D01*
Y12761D01*
X9321D01*
Y14061D01*
X7521D01*
Y13869D01*
X6131D01*
Y14176D01*
X4802D01*
Y14576D01*
X6131D01*
Y16176D01*
X5815D01*
Y19593D01*
X6261Y20039D01*
X8390D01*
X8433Y19912D01*
D02*
G37*
G36*
X11506Y18923D02*
X12936D01*
Y18503D01*
X15767D01*
Y18169D01*
X15609Y18010D01*
X10909D01*
X9927Y18992D01*
X9927Y18992D01*
X9589Y19330D01*
X9596Y19380D01*
X9572Y19563D01*
X9501Y19733D01*
X9389Y19879D01*
X9347Y19912D01*
X9390Y20039D01*
X11506D01*
Y18923D01*
D02*
G37*
G36*
X22122Y17904D02*
X22081Y17873D01*
X21969Y17727D01*
X21899Y17556D01*
X21875Y17374D01*
X21899Y17191D01*
X21932Y17110D01*
X21847Y16983D01*
X20417D01*
X20368Y17020D01*
X20198Y17090D01*
X20015Y17114D01*
X19832Y17090D01*
X19662Y17020D01*
X19516Y16908D01*
X19404Y16761D01*
X19333Y16591D01*
X19309Y16408D01*
X19333Y16226D01*
X19404Y16055D01*
X19484Y15951D01*
X19429Y15824D01*
X18464D01*
X18426Y15951D01*
X18511Y16008D01*
X19091Y16588D01*
X19190Y16737D01*
X19225Y16912D01*
Y18503D01*
X22122D01*
Y17904D01*
D02*
G37*
G36*
X41893Y18685D02*
Y16176D01*
X41577D01*
Y16176D01*
X41488D01*
Y16176D01*
X41172D01*
Y17554D01*
X41137Y17730D01*
X41038Y17879D01*
X40401Y18515D01*
X40421Y18598D01*
X40451Y18642D01*
X41488D01*
X41664Y18677D01*
X41766Y18745D01*
X41893Y18685D01*
D02*
G37*
G36*
X24622Y15047D02*
X24804Y14925D01*
X25019Y14882D01*
X28386D01*
Y14159D01*
X28356Y14120D01*
X28286Y13950D01*
X28262Y13767D01*
X28286Y13584D01*
X28356Y13414D01*
X28469Y13268D01*
X28615Y13155D01*
X28785Y13085D01*
X28968Y13061D01*
X29151Y13085D01*
X29321Y13155D01*
X29467Y13268D01*
X29509Y13322D01*
X29636Y13278D01*
Y11818D01*
X29596Y11779D01*
X27824D01*
Y12118D01*
X26024D01*
Y12118D01*
X25970D01*
Y12118D01*
X25644D01*
Y12716D01*
X25708Y12800D01*
X25779Y12970D01*
X25803Y13153D01*
X25779Y13336D01*
X25708Y13506D01*
X25596Y13652D01*
X25450Y13765D01*
X25280Y13835D01*
X25097Y13859D01*
X24914Y13835D01*
X24744Y13765D01*
X24598Y13652D01*
X24485Y13506D01*
X24415Y13336D01*
X24391Y13153D01*
X24415Y12970D01*
X24485Y12800D01*
X24523Y12752D01*
Y12118D01*
X24170D01*
Y11779D01*
X21452D01*
X21427Y11906D01*
X21562Y11962D01*
X21708Y12074D01*
X21820Y12220D01*
X21891Y12390D01*
X21915Y12572D01*
X22731D01*
Y14172D01*
X21181D01*
Y13275D01*
X21026Y13255D01*
X20856Y13184D01*
X20830Y13164D01*
X20703Y13227D01*
Y13931D01*
X20660Y14146D01*
X20539Y14328D01*
X20278Y14588D01*
X20279Y14628D01*
X20303Y14701D01*
X20319Y14723D01*
X20455Y14750D01*
X20604Y14850D01*
X20667Y14913D01*
X21181D01*
Y14572D01*
X22731D01*
Y15861D01*
X23808D01*
X24622Y15047D01*
D02*
G37*
G36*
X12926Y14576D02*
X14476D01*
Y14918D01*
X14710D01*
X14778Y14850D01*
X14927Y14750D01*
X15103Y14715D01*
X15356D01*
X15419Y14588D01*
X15391Y14552D01*
X15325Y14394D01*
X15303Y14224D01*
X15325Y14054D01*
X15391Y13896D01*
X15495Y13760D01*
Y13738D01*
X15391Y13602D01*
X15325Y13444D01*
X15303Y13274D01*
X15325Y13104D01*
X15391Y12946D01*
X15495Y12810D01*
X15631Y12706D01*
X15700Y12678D01*
X15782Y12608D01*
X15765Y12519D01*
X15726Y12426D01*
X15712Y12313D01*
X15578Y12268D01*
X14476Y13369D01*
Y14176D01*
X12926D01*
Y13947D01*
X12498D01*
Y14822D01*
X12549Y14888D01*
X12619Y15058D01*
X12643Y15241D01*
X12619Y15423D01*
X12549Y15594D01*
X12437Y15740D01*
X12428Y15746D01*
X12471Y15873D01*
X12926D01*
Y14576D01*
D02*
G37*
G36*
X29964Y10289D02*
Y9677D01*
X29261D01*
Y7109D01*
X28799D01*
X28584Y7066D01*
X28402Y6945D01*
X28391Y6934D01*
X28283Y7006D01*
X28287Y7014D01*
X28309Y7183D01*
X28287Y7353D01*
X28221Y7511D01*
X28117Y7647D01*
X27981Y7751D01*
X27823Y7816D01*
X27653Y7839D01*
X26753D01*
X26584Y7816D01*
X26426Y7751D01*
X26290Y7647D01*
X26186Y7511D01*
X26120Y7353D01*
X26101Y7209D01*
X25973D01*
X25954Y7353D01*
X25889Y7511D01*
X25785Y7647D01*
X25649Y7751D01*
X25491Y7816D01*
X25321Y7839D01*
X24421D01*
X24251Y7816D01*
X24093Y7751D01*
X24084Y7744D01*
X20491D01*
X20389Y7724D01*
X19931D01*
Y7228D01*
X19920Y7174D01*
Y6724D01*
X19931Y6670D01*
Y5724D01*
X20981D01*
Y5244D01*
X22627D01*
X22676Y5148D01*
X22683Y5118D01*
X22589Y4976D01*
X22554Y4801D01*
Y4264D01*
X20981D01*
Y3075D01*
X15481D01*
Y4254D01*
X13781D01*
Y3075D01*
X13449D01*
Y6474D01*
X13244D01*
Y7507D01*
X13616D01*
Y7813D01*
X15245D01*
X15420Y7637D01*
Y6724D01*
X15431Y6670D01*
Y6444D01*
X13781D01*
Y5244D01*
X15481D01*
Y5724D01*
X16531D01*
Y6163D01*
X16931D01*
Y5724D01*
X18031D01*
Y6670D01*
X18042Y6724D01*
Y8562D01*
X18820Y9340D01*
X18903Y9351D01*
X19073Y9422D01*
X19219Y9534D01*
X19331Y9680D01*
X19402Y9850D01*
X19426Y10033D01*
X19402Y10216D01*
X19331Y10386D01*
X19221Y10530D01*
X19222Y10541D01*
X19265Y10657D01*
X24170D01*
Y10318D01*
Y8558D01*
X25970D01*
Y8558D01*
X26024D01*
Y8558D01*
X27824D01*
Y8832D01*
X27951Y8858D01*
X28044Y8787D01*
X28214Y8716D01*
X28397Y8692D01*
X28580Y8716D01*
X28750Y8787D01*
X28896Y8899D01*
X29009Y9045D01*
X29079Y9215D01*
X29103Y9398D01*
X29079Y9581D01*
X29009Y9751D01*
X28896Y9897D01*
X28750Y10009D01*
X28580Y10080D01*
X28397Y10104D01*
X28214Y10080D01*
X28044Y10009D01*
X28017Y9989D01*
X27824D01*
Y10657D01*
X29596D01*
X29964Y10289D01*
D02*
G37*
G36*
X10056Y11519D02*
Y9870D01*
X10396D01*
Y9307D01*
X10056D01*
Y7507D01*
X10429D01*
Y6213D01*
X10325Y6077D01*
X10244Y5882D01*
X10217Y5674D01*
Y5507D01*
X10092Y5483D01*
X10072Y5531D01*
X9821Y5940D01*
X9509Y6305D01*
X9144Y6617D01*
X8735Y6868D01*
X8292Y7052D01*
X7825Y7164D01*
X7346Y7201D01*
Y7201D01*
X6580D01*
X6438Y7343D01*
Y7619D01*
X6754D01*
Y9219D01*
X5204D01*
Y7619D01*
X5520D01*
Y7153D01*
X5555Y6977D01*
X5655Y6828D01*
X6065Y6418D01*
X6097Y6396D01*
X6090Y6249D01*
X5978Y6189D01*
X5605Y5883D01*
X5299Y5510D01*
X5072Y5084D01*
X4932Y4622D01*
X4919Y4499D01*
X4153D01*
Y10348D01*
X4270Y10397D01*
X4573Y10094D01*
X4722Y9995D01*
X4897Y9960D01*
X5204D01*
Y9619D01*
X6754D01*
Y9960D01*
X7363D01*
Y9619D01*
X8913D01*
X8965Y9513D01*
Y9324D01*
X8913Y9219D01*
X7363D01*
Y7619D01*
X8913D01*
Y7960D01*
X9079D01*
X9255Y7995D01*
X9404Y8094D01*
X9748Y8439D01*
X9847Y8587D01*
X9882Y8763D01*
Y11548D01*
X9929Y11583D01*
X10056Y11519D01*
D02*
G37*
G36*
X12926Y12576D02*
X13683D01*
X15438Y10821D01*
X15620Y10700D01*
X15834Y10657D01*
X18175D01*
X18217Y10541D01*
X18219Y10530D01*
X18108Y10386D01*
X18038Y10216D01*
X18027Y10133D01*
X17085Y9191D01*
X16963Y9009D01*
X16920Y8794D01*
Y7285D01*
X16542D01*
Y7869D01*
X16499Y8084D01*
X16378Y8266D01*
X15873Y8770D01*
X15691Y8892D01*
X15477Y8935D01*
X13616D01*
Y9307D01*
X13277D01*
Y9870D01*
X13616D01*
Y11670D01*
X11517D01*
Y11969D01*
X12334Y12785D01*
X12360Y12825D01*
X12926D01*
Y12576D01*
D02*
G37*
G36*
X26158Y5543D02*
X26120Y5453D01*
X26098Y5283D01*
X26120Y5114D01*
X26186Y4955D01*
X26290Y4820D01*
X26426Y4715D01*
X26584Y4650D01*
X26753Y4628D01*
X27653D01*
X27823Y4650D01*
X27969Y4710D01*
X28019Y4672D01*
X28189Y4601D01*
X28372Y4577D01*
X28555Y4601D01*
X28725Y4672D01*
X28871Y4784D01*
X28917Y4844D01*
X29044Y4801D01*
Y3145D01*
X29261D01*
Y2399D01*
X27895D01*
X27850Y2507D01*
X27850Y2526D01*
Y4057D01*
X26250D01*
Y2526D01*
X26250Y2507D01*
X26204Y2399D01*
X25895D01*
X25850Y2507D01*
X25850D01*
Y4057D01*
X24898D01*
X24779Y4177D01*
X24785Y4228D01*
X24761Y4411D01*
X24722Y4506D01*
X24804Y4633D01*
X25971D01*
Y5617D01*
X26090Y5643D01*
X26158Y5543D01*
D02*
G37*
%LPC*%
G36*
X58500Y60319D02*
X58317Y60294D01*
X58147Y60224D01*
X58001Y60112D01*
X57888Y59965D01*
X57818Y59795D01*
X57794Y59612D01*
X57818Y59430D01*
X57888Y59259D01*
X58001Y59113D01*
X58041Y59082D01*
Y58289D01*
X58001Y58258D01*
X57888Y58111D01*
X57818Y57941D01*
X57794Y57758D01*
X57818Y57576D01*
X57888Y57405D01*
X58001Y57259D01*
X58147Y57147D01*
X58317Y57076D01*
X58500Y57052D01*
X58682Y57076D01*
X58853Y57147D01*
X58999Y57259D01*
X59111Y57405D01*
X59182Y57576D01*
X59206Y57758D01*
X59182Y57941D01*
X59111Y58111D01*
X58999Y58258D01*
X58959Y58289D01*
Y59082D01*
X58999Y59113D01*
X59111Y59259D01*
X59182Y59430D01*
X59206Y59612D01*
X59182Y59795D01*
X59111Y59965D01*
X58999Y60112D01*
X58853Y60224D01*
X58682Y60294D01*
X58500Y60319D01*
D02*
G37*
G36*
X66575Y57741D02*
X66393Y57717D01*
X66222Y57646D01*
X66076Y57534D01*
X65964Y57388D01*
X65893Y57217D01*
X65869Y57035D01*
X65893Y56852D01*
X65964Y56682D01*
X66076Y56535D01*
X66222Y56423D01*
X66393Y56353D01*
X66575Y56329D01*
X66758Y56353D01*
X66928Y56423D01*
X67075Y56535D01*
X67115Y56588D01*
X75912D01*
X76278Y56222D01*
Y54428D01*
X76238Y54397D01*
X76126Y54250D01*
X76055Y54080D01*
X76031Y53897D01*
X76055Y53715D01*
X76126Y53544D01*
X76238Y53398D01*
X76384Y53286D01*
X76554Y53215D01*
X76737Y53191D01*
X76920Y53215D01*
X77090Y53286D01*
X77236Y53398D01*
X77348Y53544D01*
X77419Y53715D01*
X77443Y53897D01*
X77419Y54080D01*
X77348Y54250D01*
X77236Y54397D01*
X77196Y54428D01*
Y56412D01*
X77161Y56588D01*
X77061Y56736D01*
X76426Y57371D01*
X76278Y57471D01*
X76102Y57506D01*
X67096D01*
X67075Y57534D01*
X66928Y57646D01*
X66758Y57717D01*
X66575Y57741D01*
D02*
G37*
G36*
X53886Y56001D02*
X53703Y55976D01*
X53533Y55906D01*
X53387Y55794D01*
X53274Y55647D01*
X53204Y55477D01*
X53180Y55294D01*
X53204Y55112D01*
X53274Y54941D01*
X53387Y54795D01*
X53533Y54683D01*
X53703Y54612D01*
X53886Y54588D01*
X54068Y54612D01*
X54239Y54683D01*
X54385Y54795D01*
X54416Y54836D01*
X70266D01*
X70744Y54357D01*
Y50660D01*
X70704Y50629D01*
X70592Y50483D01*
X70521Y50312D01*
X70497Y50130D01*
X70521Y49947D01*
X70592Y49777D01*
X70704Y49630D01*
X70850Y49518D01*
X71021Y49448D01*
X71203Y49424D01*
X71386Y49448D01*
X71556Y49518D01*
X71703Y49630D01*
X71815Y49777D01*
X71885Y49947D01*
X71909Y50130D01*
X71885Y50312D01*
X71815Y50483D01*
X71703Y50629D01*
X71662Y50660D01*
Y54547D01*
X71627Y54723D01*
X71528Y54872D01*
X70781Y55619D01*
X70632Y55718D01*
X70456Y55753D01*
X54416D01*
X54385Y55794D01*
X54239Y55906D01*
X54068Y55976D01*
X53886Y56001D01*
D02*
G37*
G36*
X71261Y20691D02*
X70987Y20655D01*
X70732Y20549D01*
X70512Y20381D01*
X70344Y20162D01*
X70238Y19906D01*
X70202Y19632D01*
X70238Y19358D01*
X70344Y19103D01*
X70512Y18883D01*
X70732Y18715D01*
X70987Y18609D01*
X71261Y18573D01*
X71535Y18609D01*
X71791Y18715D01*
X72010Y18883D01*
X72178Y19103D01*
X72284Y19358D01*
X72320Y19632D01*
X72284Y19906D01*
X72178Y20162D01*
X72010Y20381D01*
X71791Y20549D01*
X71535Y20655D01*
X71261Y20691D01*
D02*
G37*
G36*
X71236Y18126D02*
X70962Y18090D01*
X70707Y17984D01*
X70487Y17816D01*
X70319Y17597D01*
X70213Y17341D01*
X70177Y17067D01*
X70213Y16793D01*
X70319Y16538D01*
X70487Y16318D01*
X70707Y16150D01*
X70962Y16044D01*
X71236Y16008D01*
X71510Y16044D01*
X71766Y16150D01*
X71985Y16318D01*
X72153Y16538D01*
X72259Y16793D01*
X72295Y17067D01*
X72259Y17341D01*
X72153Y17597D01*
X71985Y17816D01*
X71766Y17984D01*
X71510Y18090D01*
X71236Y18126D01*
D02*
G37*
G36*
X33734Y13790D02*
X32134D01*
Y13668D01*
X32007Y13610D01*
X31986Y13626D01*
X31816Y13697D01*
X31633Y13721D01*
X31450Y13697D01*
X31280Y13626D01*
X31134Y13514D01*
X31022Y13368D01*
X30951Y13198D01*
X30927Y13015D01*
X30951Y12832D01*
X31022Y12662D01*
X31134Y12516D01*
X31280Y12403D01*
X31450Y12333D01*
X31633Y12309D01*
X31816Y12333D01*
X31986Y12403D01*
X32007Y12420D01*
X32134Y12362D01*
Y12240D01*
X33734D01*
Y13790D01*
D02*
G37*
G36*
X71261Y15611D02*
X70987Y15575D01*
X70732Y15469D01*
X70512Y15301D01*
X70344Y15082D01*
X70238Y14826D01*
X70202Y14552D01*
X70238Y14278D01*
X70344Y14023D01*
X70512Y13803D01*
X70732Y13635D01*
X70987Y13529D01*
X71261Y13493D01*
X71535Y13529D01*
X71791Y13635D01*
X72010Y13803D01*
X72178Y14023D01*
X72284Y14278D01*
X72320Y14552D01*
X72284Y14826D01*
X72178Y15082D01*
X72010Y15301D01*
X71791Y15469D01*
X71535Y15575D01*
X71261Y15611D01*
D02*
G37*
G36*
X15291Y41244D02*
X15108Y41220D01*
X14938Y41150D01*
X14872Y41099D01*
X13449D01*
X13383Y41150D01*
X13213Y41220D01*
X13030Y41244D01*
X12847Y41220D01*
X12677Y41150D01*
X12531Y41038D01*
X12419Y40891D01*
X12348Y40721D01*
X12324Y40538D01*
X12348Y40356D01*
X12419Y40185D01*
X12531Y40039D01*
X12677Y39927D01*
X12847Y39856D01*
X13030Y39832D01*
X13213Y39856D01*
X13383Y39927D01*
X13449Y39978D01*
X14872D01*
X14938Y39927D01*
X15108Y39856D01*
X15291Y39832D01*
X15474Y39856D01*
X15644Y39927D01*
X15790Y40039D01*
X15902Y40185D01*
X15973Y40356D01*
X15997Y40538D01*
X15973Y40721D01*
X15902Y40891D01*
X15790Y41038D01*
X15644Y41150D01*
X15474Y41220D01*
X15291Y41244D01*
D02*
G37*
G36*
X93796Y47457D02*
X93457Y47413D01*
X93141Y47282D01*
X92869Y47073D01*
X92661Y46802D01*
X92530Y46486D01*
X92485Y46146D01*
X92530Y45807D01*
X92661Y45491D01*
X92869Y45219D01*
X93141Y45011D01*
X93457Y44880D01*
X93796Y44835D01*
X94136Y44880D01*
X94452Y45011D01*
X94723Y45219D01*
X94932Y45491D01*
X95063Y45807D01*
X95107Y46146D01*
X95063Y46486D01*
X94932Y46802D01*
X94723Y47073D01*
X94452Y47282D01*
X94136Y47413D01*
X93796Y47457D01*
D02*
G37*
G36*
X19737Y5456D02*
X19554Y5432D01*
X19384Y5361D01*
X19238Y5249D01*
X19126Y5103D01*
X19055Y4933D01*
X19031Y4750D01*
X19055Y4567D01*
X19126Y4397D01*
X19238Y4251D01*
X19384Y4138D01*
X19554Y4068D01*
X19737Y4044D01*
X19920Y4068D01*
X20090Y4138D01*
X20236Y4251D01*
X20349Y4397D01*
X20419Y4567D01*
X20443Y4750D01*
X20419Y4933D01*
X20349Y5103D01*
X20236Y5249D01*
X20090Y5361D01*
X19920Y5432D01*
X19737Y5456D01*
D02*
G37*
G36*
X16737D02*
X16554Y5432D01*
X16384Y5361D01*
X16238Y5249D01*
X16126Y5103D01*
X16055Y4933D01*
X16031Y4750D01*
X16055Y4567D01*
X16126Y4397D01*
X16238Y4251D01*
X16384Y4138D01*
X16554Y4068D01*
X16737Y4044D01*
X16920Y4068D01*
X17090Y4138D01*
X17236Y4251D01*
X17349Y4397D01*
X17419Y4567D01*
X17443Y4750D01*
X17419Y4933D01*
X17349Y5103D01*
X17236Y5249D01*
X17090Y5361D01*
X16920Y5432D01*
X16737Y5456D01*
D02*
G37*
%LPD*%
D12*
X98442Y12169D02*
X98609Y12003D01*
Y11670D01*
X98442Y11503D01*
X97776D01*
X97609Y11670D01*
Y12003D01*
X97776Y12169D01*
X98109D01*
Y11836D01*
X97609Y12503D02*
X98609D01*
X97609Y13169D01*
X98609D01*
Y13502D02*
X97609D01*
Y14002D01*
X97776Y14169D01*
X98442D01*
X98609Y14002D01*
Y13502D01*
D17*
X34814Y14884D02*
D03*
X33054D02*
D03*
X10956Y10770D02*
D03*
X12716D02*
D03*
X10956Y8407D02*
D03*
X12716D02*
D03*
D18*
X34925Y4098D02*
D03*
X32525D02*
D03*
D19*
X37254Y4095D02*
D03*
X30194D02*
D03*
D20*
X36925Y6548D02*
D03*
X30525D02*
D03*
D21*
X35025Y6973D02*
D03*
X34375D02*
D03*
X33725D02*
D03*
X33075D02*
D03*
X32425D02*
D03*
D22*
X20853Y29108D02*
D03*
X22696Y25468D02*
D03*
Y27303D02*
D03*
Y29138D02*
D03*
X24539Y29108D02*
D03*
D23*
X20853Y27273D02*
D03*
X20861Y25468D02*
D03*
X24531D02*
D03*
X24539Y27273D02*
D03*
D24*
X30196Y36803D02*
D03*
X28926D02*
D03*
X27656D02*
D03*
X26386D02*
D03*
X25116D02*
D03*
X23846D02*
D03*
X22576D02*
D03*
X21306D02*
D03*
X20036D02*
D03*
X18766D02*
D03*
X17496D02*
D03*
X16226D02*
D03*
X14956D02*
D03*
X13686D02*
D03*
D03*
Y19803D02*
D03*
X14956D02*
D03*
X16226D02*
D03*
X17496D02*
D03*
X18766D02*
D03*
X20036D02*
D03*
X21306D02*
D03*
X22576D02*
D03*
X23846D02*
D03*
X25116D02*
D03*
X26386D02*
D03*
X27656D02*
D03*
X28926D02*
D03*
X30196D02*
D03*
D03*
D25*
X12686Y34018D02*
D03*
Y32748D02*
D03*
Y23858D02*
D03*
Y22588D02*
D03*
D03*
D27*
X34934Y13015D02*
D03*
X32934D02*
D03*
X27050Y3282D02*
D03*
X25050D02*
D03*
D33*
X5356Y15376D02*
D03*
Y13376D02*
D03*
X8138Y10419D02*
D03*
Y8419D02*
D03*
X5979Y10419D02*
D03*
Y8419D02*
D03*
X42352Y13376D02*
D03*
Y15376D02*
D03*
X39075Y13376D02*
D03*
Y15376D02*
D03*
X40714Y13376D02*
D03*
Y15376D02*
D03*
X38755Y59944D02*
D03*
Y61944D02*
D03*
X37307Y59944D02*
D03*
Y61944D02*
D03*
X35859Y59944D02*
D03*
Y61944D02*
D03*
X13761Y59944D02*
D03*
Y61944D02*
D03*
X12313Y59944D02*
D03*
Y61944D02*
D03*
X10865Y59944D02*
D03*
Y61944D02*
D03*
X21956Y13372D02*
D03*
Y15372D02*
D03*
X13701Y13376D02*
D03*
Y15376D02*
D03*
D39*
X91317Y12826D02*
D03*
X96397D02*
D03*
X89034Y64714D02*
D03*
X94114D02*
D03*
X99194D02*
D03*
D68*
X9932Y4413D02*
G03*
X7346Y6742I-2586J-271D01*
G01*
X64850Y13892D02*
Y28218D01*
X59770Y28320D02*
X59773Y28316D01*
X50524Y25678D02*
X57865D01*
X58500Y26313D01*
X58603Y24689D02*
X59773Y25859D01*
X49642Y8760D02*
X49666Y8736D01*
X87100Y16356D02*
X87888Y17144D01*
X90148D01*
X62310Y29146D02*
X62322Y29158D01*
X83290Y29107D02*
X84230D01*
X49666Y8736D02*
X51743D01*
X78566Y16356D02*
X87100D01*
X58500Y57758D02*
Y59612D01*
X82011Y30386D02*
Y40817D01*
Y30386D02*
X83290Y29107D01*
X76102Y57047D02*
X76737Y56412D01*
Y53897D02*
Y56412D01*
X91317Y12826D02*
Y13739D01*
X90901Y14155D02*
X91317Y13739D01*
X87557Y14604D02*
X88006Y14155D01*
X90901D01*
X78312Y14604D02*
X87557D01*
X94083Y61591D02*
Y64698D01*
X85221Y49351D02*
X85856Y49986D01*
X92180D01*
X94060Y51865D02*
Y61568D01*
X92180Y49986D02*
X94060Y51865D01*
X49684Y24689D02*
X58603D01*
X49635Y24738D02*
X49684Y24689D01*
X59773Y25859D02*
Y28316D01*
X58500Y26313D02*
Y28320D01*
X50524Y60231D02*
X50597Y60304D01*
X50524Y25678D02*
Y60231D01*
X49811Y61527D02*
X50381D01*
X49635Y61351D02*
X49811Y61527D01*
X50381D02*
X50397Y61543D01*
X49635Y24738D02*
Y61351D01*
X52198Y30047D02*
X57255D01*
X51693Y30553D02*
X52198Y30047D01*
X51693Y56551D02*
X51699Y56557D01*
X51693Y30553D02*
Y56551D01*
X71203Y50130D02*
Y54547D01*
X70456Y55294D02*
X71203Y54547D01*
X53886Y55294D02*
X70456D01*
X66588Y57047D02*
X76102D01*
X66575Y57035D02*
X66588Y57047D01*
X61040Y29996D02*
X73918D01*
X63110Y47040D02*
Y50597D01*
X67392Y30846D02*
Y42759D01*
X63110Y47040D02*
X67392Y42759D01*
X68608Y31763D02*
Y42482D01*
X66606Y44484D02*
Y50567D01*
Y44484D02*
X68608Y42482D01*
X73918Y29996D02*
X78480Y25434D01*
X84651D01*
X85221Y26004D01*
Y49351D01*
X78172Y16750D02*
Y24855D01*
Y16750D02*
X78566Y16356D01*
X73869Y29158D02*
X78172Y24855D01*
X62322Y29158D02*
X73869D01*
X76715Y16200D02*
Y22563D01*
Y16200D02*
X78312Y14604D01*
X55870Y12863D02*
X63820D01*
X64850Y13892D01*
X51743Y8736D02*
X55870Y12863D01*
X69930Y23623D02*
Y28308D01*
X70105Y23447D02*
X75831D01*
X69930Y23623D02*
X70105Y23447D01*
X75831D02*
X76715Y22563D01*
X33680Y34696D02*
X34722Y35738D01*
Y42139D01*
X30632Y44069D02*
X33045D01*
X7899Y21615D02*
X14124D01*
X14300Y21791D01*
Y23444D01*
X14956Y24100D01*
Y23135D02*
X15494Y23673D01*
X14956Y19803D02*
Y23135D01*
Y24100D02*
Y36803D01*
X15494Y23673D02*
X28804D01*
X20523Y22987D02*
X29362D01*
X20036Y19803D02*
Y22500D01*
X20523Y22987D01*
X28804Y23673D02*
X37313Y32182D01*
Y42189D01*
X27991Y29794D02*
X29743D01*
X26386Y32847D02*
X28423Y30810D01*
X30531D01*
X28016Y34696D02*
X33680D01*
X27656Y35056D02*
X28016Y34696D01*
X27656Y35056D02*
Y36803D01*
X25116Y32669D02*
X27991Y29794D01*
X26386Y32847D02*
Y36803D01*
X25116Y32669D02*
Y36803D01*
X33034Y9003D02*
X33725Y8312D01*
Y6973D02*
Y8312D01*
X34366Y9093D02*
X34375Y9084D01*
Y6973D02*
Y9084D01*
X35027Y6975D02*
Y8130D01*
X35075Y8179D01*
X41488Y19101D02*
X42352Y19964D01*
X32944Y19101D02*
X41488D01*
X32791Y17348D02*
X38557D01*
X32766Y17323D02*
X32791Y17348D01*
X31676Y18212D02*
X40056D01*
X40714Y17554D01*
X31674Y18210D02*
X31676Y18212D01*
X22581Y17374D02*
Y19799D01*
X23851Y36807D02*
Y38913D01*
X23846Y36803D02*
X23851Y36807D01*
X25385Y40376D02*
X25400Y40361D01*
X25369Y42976D02*
X25385Y42960D01*
Y40376D02*
Y42960D01*
X20036Y36803D02*
X20066Y36833D01*
Y40411D01*
X16226Y36803D02*
X16231Y36807D01*
Y38938D01*
X17501Y36807D02*
Y39802D01*
X21306Y21611D02*
X21737Y22042D01*
X21306Y19803D02*
Y21611D01*
X21737Y22042D02*
X24974D01*
X11073Y36803D02*
X13686D01*
X10617Y36347D02*
X11073Y36803D01*
X10617Y35052D02*
Y36347D01*
X8001Y34036D02*
X12668D01*
X12686Y34018D01*
X26642Y41278D02*
Y42973D01*
Y41278D02*
X26645Y41275D01*
X7391Y18161D02*
X9220Y16332D01*
X18186D01*
X8992Y17932D02*
X9973Y16951D01*
X16926D01*
X10719Y17551D02*
X15799D01*
X9602Y18668D02*
Y18668D01*
Y18668D02*
X10719Y17551D01*
X8890Y19380D02*
X9602Y18668D01*
X42352Y19964D02*
Y23536D01*
Y15376D02*
Y19964D01*
X23876Y18288D02*
Y19773D01*
X23846Y19803D02*
X23876Y19773D01*
X40714Y15376D02*
Y17554D01*
X38557Y17348D02*
X39075Y16830D01*
X22576Y19803D02*
X22581Y19799D01*
X34445Y16447D02*
X34814Y16078D01*
X31293Y16510D02*
X32351D01*
X32414Y16447D01*
X34445D01*
X39075Y15376D02*
Y16830D01*
X27909Y42976D02*
X27912Y42973D01*
Y40414D02*
X27915Y40411D01*
X27912Y40414D02*
Y42973D01*
X26639Y42976D02*
X26642Y42973D01*
X24099Y39960D02*
X24689Y39370D01*
X28321D02*
X28926Y38765D01*
X24689Y39370D02*
X28321D01*
X28926Y36803D02*
Y38765D01*
X24099Y39960D02*
Y42976D01*
X17496Y36803D02*
X17501Y36807D01*
X18766Y36803D02*
X18771Y36807D01*
Y39853D01*
X21306Y39315D02*
X22829Y40838D01*
X21306Y36803D02*
Y39315D01*
X22829Y40838D02*
Y42976D01*
X5356Y15376D02*
Y19783D01*
X6071Y20498D02*
X13386D01*
X5356Y19783D02*
X6071Y20498D01*
X13386D02*
X13686Y20198D01*
Y19803D02*
Y20198D01*
X18186Y16332D02*
X18766Y16912D01*
Y19803D01*
X16926Y16951D02*
X17496Y17522D01*
Y19803D01*
X15799Y17551D02*
X16226Y17979D01*
Y19803D01*
X7849Y32756D02*
X7856Y32748D01*
X12686D01*
X40225Y25663D02*
X42352Y23536D01*
X27635Y16485D02*
Y19782D01*
X27656Y19803D01*
X34814Y14884D02*
Y16078D01*
X24079Y4227D02*
X25025Y3282D01*
X24079Y4227D02*
Y4228D01*
X9932Y4413D02*
X9932Y4413D01*
X22682Y2616D02*
X23012Y2946D01*
Y4801D02*
X23495Y5283D01*
X25025Y3282D02*
X25050D01*
X9932Y4413D02*
X9946Y4349D01*
X23012Y2946D02*
Y4801D01*
X21209Y12600D02*
X21956Y13347D01*
X21209Y12573D02*
Y12600D01*
X21956Y13347D02*
Y13372D01*
X27050Y3278D02*
Y3282D01*
X10363Y2616D02*
X22682D01*
X6390Y6742D02*
X7346D01*
X5979Y7153D02*
X6390Y6742D01*
X9946Y3033D02*
Y4349D01*
X5979Y7153D02*
Y8419D01*
X9946Y3033D02*
X10363Y2616D01*
X8138Y8419D02*
X9079D01*
X9423Y8763D01*
Y11809D01*
X10378Y12764D01*
X5979Y10419D02*
X8138D01*
X4343Y10973D02*
Y22784D01*
Y10973D02*
X4897Y10419D01*
X5979D01*
X4343Y22784D02*
X5418Y23858D01*
X12686D01*
X20279Y15174D02*
X20477Y15372D01*
X21956D01*
X18741Y15174D02*
X20279D01*
X13701Y15376D02*
X14900D01*
X15103Y15174D01*
X16408D01*
X13761Y61944D02*
X20251D01*
X23318Y65011D01*
X16516Y63205D02*
X18324Y65014D01*
X12624Y63205D02*
X16516D01*
X13310Y64110D02*
Y65003D01*
X11303Y63805D02*
X13005D01*
X13310Y64110D01*
X12313Y62894D02*
X12624Y63205D01*
X12313Y61944D02*
Y62894D01*
X10865Y61944D02*
Y63367D01*
X11303Y63805D01*
X18324Y65014D02*
Y65014D01*
X30048Y63221D02*
X35509D01*
X35859Y62871D01*
Y61944D02*
Y62871D01*
X28296Y64973D02*
X30048Y63221D01*
X28296Y64973D02*
Y64993D01*
X34381Y63932D02*
X36852D01*
X33310Y65003D02*
X34381Y63932D01*
X36852D02*
X37307Y63477D01*
X33310Y65003D02*
Y65003D01*
X37307Y61944D02*
Y63477D01*
X38303Y63576D02*
Y65000D01*
Y63576D02*
X38755Y63124D01*
Y61944D02*
Y63124D01*
X35025Y6973D02*
X35027Y6975D01*
X32375Y6548D02*
X32425Y6598D01*
Y6973D01*
X30525Y6548D02*
X32375D01*
X10378Y12764D02*
Y14326D01*
X8138Y8394D02*
Y8419D01*
X5390Y13411D02*
X8421D01*
X5356Y13376D02*
X5390Y13411D01*
D69*
X42389Y44219D02*
Y55063D01*
X42376Y44207D02*
X42389Y44219D01*
Y55063D02*
X42393Y55067D01*
X84250Y27197D02*
X84255Y27202D01*
X81336Y27192D02*
X81341Y27197D01*
X84250D01*
X86110Y18515D02*
X87608Y20014D01*
X95660D01*
X96397Y19277D01*
Y12826D02*
Y19277D01*
X86719Y17296D02*
X87735Y18312D01*
X81131Y17296D02*
X86719D01*
X87735Y18312D02*
X91571D01*
X93564Y16077D02*
X93857Y15784D01*
Y12826D02*
Y15784D01*
X87430Y15366D02*
X88142Y16077D01*
X93564D01*
X78566Y15366D02*
X87430D01*
X80014Y51103D02*
X80852Y50265D01*
Y37362D02*
Y50265D01*
X74172Y51103D02*
X80014D01*
X89028Y61723D02*
X89031Y61721D01*
X89026Y64722D02*
X89028Y64719D01*
X80852Y50265D02*
X81614Y51027D01*
X90859D01*
X94060Y61568D02*
X94083Y61591D01*
X99201Y61431D02*
Y64707D01*
Y61431D02*
X99216Y61416D01*
X99186Y64722D02*
X99194Y64714D01*
X99201Y64707D01*
X94083Y64698D02*
X94106Y64722D01*
X76121Y24713D02*
X77469Y23364D01*
Y16462D02*
Y23364D01*
Y16462D02*
X78566Y15366D01*
X71261Y24713D02*
X76121D01*
X91554Y51722D02*
Y56665D01*
X90859Y51027D02*
X91554Y51722D01*
X89028Y61723D02*
Y64719D01*
X42367Y42189D02*
X42376Y42198D01*
Y44207D01*
X39845Y44215D02*
X39849Y44211D01*
Y42168D02*
Y44211D01*
Y42168D02*
X39853Y42164D01*
X34743Y44194D02*
X34765Y44215D01*
X34722Y42139D02*
X34743Y42160D01*
Y44194D01*
X37305Y42197D02*
X37313Y42189D01*
X37305Y42197D02*
Y44215D01*
X38837Y54813D02*
X39845Y53805D01*
Y44215D02*
Y53805D01*
X36946Y54813D02*
X38837D01*
X35859Y55900D02*
X36946Y54813D01*
X35075Y8227D02*
X35357Y8509D01*
X35075Y8179D02*
Y8227D01*
X28947Y15443D02*
Y19782D01*
Y13788D02*
Y15443D01*
X20015Y16408D02*
X20029Y16422D01*
X24040D02*
X25019Y15443D01*
X20029Y16422D02*
X24040D01*
X25019Y15443D02*
X28947D01*
X25070Y11218D02*
X25083Y11231D01*
Y13140D02*
X25097Y13153D01*
X25083Y11231D02*
Y13140D01*
X13030Y40538D02*
X15291D01*
X28926Y19803D02*
Y20392D01*
X13665Y43942D02*
Y43942D01*
Y43942D02*
X15316Y42291D01*
X20058D01*
X13665Y43942D02*
Y53950D01*
X11963Y43891D02*
X13614D01*
X13665Y43942D01*
X10956Y12201D02*
X11937Y13182D01*
Y13386D02*
X13691D01*
X11937D02*
Y15241D01*
Y13182D02*
Y13386D01*
X8421Y15241D02*
X11937D01*
X20058Y42139D02*
Y42291D01*
X20289Y42370D02*
Y42976D01*
X20058Y42139D02*
X20289Y42370D01*
X13665Y53950D02*
X14605Y54889D01*
X28947Y13788D02*
X28968Y13767D01*
X28926Y19803D02*
X28947Y19782D01*
X31633Y13015D02*
X32934D01*
X30196Y14910D02*
Y19803D01*
Y11585D02*
Y14910D01*
X30222Y14884D01*
X33054D01*
X34874Y13075D02*
Y14824D01*
Y13075D02*
X34934Y13015D01*
X34814Y14884D02*
X34874Y14824D01*
X36925Y12566D02*
X37735Y13376D01*
X39075D01*
X31411Y10886D02*
X32294D01*
X32309Y10871D01*
X31396Y10902D02*
X31411Y10886D01*
X16408Y12243D02*
Y13274D01*
X18741Y14224D02*
X19849D01*
X20142Y13931D01*
X15834Y11218D02*
X20142D01*
X25070D01*
X20142D02*
Y13931D01*
X29829Y11218D02*
X30196Y11585D01*
X23114Y5664D02*
X23495Y5283D01*
X26924Y11218D02*
X29829D01*
X30525Y10521D01*
Y6548D02*
Y10521D01*
X28367Y9428D02*
X28397Y9398D01*
X26954Y9428D02*
X28367D01*
X26924Y9458D02*
X26954Y9428D01*
X25070Y9458D02*
X26924D01*
X27203Y5283D02*
X28372D01*
X24871Y6233D02*
X28484D01*
X28799Y6548D01*
X18720Y12243D02*
X18730Y12253D01*
Y13263D02*
X18741Y13274D01*
X18730Y12253D02*
Y13263D01*
X17481Y8794D02*
X18720Y10033D01*
X17481Y6724D02*
Y8794D01*
X13691Y13386D02*
X13701Y13376D01*
Y13351D02*
X15834Y11218D01*
X13701Y13351D02*
Y13376D01*
X25070Y11218D02*
X26924D01*
X14605Y54889D02*
X34849D01*
X35859Y55900D01*
Y59944D01*
X12313D02*
X13761D01*
X10865D02*
X12313D01*
X13761Y55733D02*
X14605Y54889D01*
X13761Y55733D02*
Y59944D01*
X37307D02*
X38755D01*
X35859D02*
X37307D01*
X30531Y4095D02*
X37254D01*
X36925Y6548D02*
Y12566D01*
X35357Y8509D02*
Y10871D01*
X40714Y13376D02*
X42352D01*
X39075D02*
X40714D01*
X36925Y4424D02*
Y6548D01*
Y4424D02*
X37254Y4095D01*
X30525Y4101D02*
X30531Y4095D01*
X30525Y4101D02*
Y6548D01*
X28799D02*
X30525D01*
X23114Y7183D02*
X24871D01*
X20491D02*
X23114D01*
Y5664D02*
Y7183D01*
X23495Y5283D02*
X24871D01*
X12683Y4453D02*
Y8374D01*
X10956Y10770D02*
Y12201D01*
X20481Y7174D02*
X20491Y7183D01*
X20481Y6724D02*
Y7174D01*
X12683Y8374D02*
X15477D01*
X15981Y7869D01*
Y6724D02*
Y7869D01*
Y6724D02*
X17481D01*
X10956Y8407D02*
Y10770D01*
X12716Y8407D02*
Y10770D01*
X10990Y4453D02*
Y8374D01*
X10956Y8407D02*
X10990Y8374D01*
X12683Y8374D02*
X12716Y8407D01*
X12649Y4420D02*
X12683Y4453D01*
D71*
X48734Y7339D02*
X51566D01*
X62945Y59460D02*
Y63702D01*
X48340Y7733D02*
Y63499D01*
Y7733D02*
X48734Y7339D01*
X51566D02*
X56239Y12013D01*
X71157D01*
X50146Y65304D02*
X61342D01*
X48340Y63499D02*
X50146Y65304D01*
X61342D02*
X62945Y63702D01*
D72*
X52586Y3397D02*
D03*
Y71892D02*
D03*
X71157Y12013D02*
D03*
X71261Y14552D02*
D03*
X71236Y17067D02*
D03*
X71261Y19632D02*
D03*
Y22172D02*
D03*
Y24712D02*
D03*
D73*
X42385Y44215D02*
D03*
X39845D02*
D03*
X37305D02*
D03*
X34765D02*
D03*
X93796Y18346D02*
D03*
Y46146D02*
D03*
D74*
X16737Y4750D02*
D03*
X19737D02*
D03*
D75*
X42393Y55067D02*
D03*
D76*
X81336Y27192D02*
D03*
X64850Y28218D02*
D03*
X59770Y28320D02*
D03*
X50524Y25678D02*
D03*
X49642Y8760D02*
D03*
X84255Y27202D02*
D03*
X61040Y29996D02*
D03*
X81131Y17296D02*
D03*
X86110Y18515D02*
D03*
X91571Y18312D02*
D03*
X90148Y17144D02*
D03*
X62310Y29146D02*
D03*
X84230Y29107D02*
D03*
X58500Y59612D02*
D03*
Y57758D02*
D03*
X74172Y51103D02*
D03*
X82011Y40817D02*
D03*
X80852Y37362D02*
D03*
X76737Y53897D02*
D03*
X69930Y28308D02*
D03*
X62945Y59460D02*
D03*
X89031Y61721D02*
D03*
X94060Y61568D02*
D03*
X99216Y61416D02*
D03*
X49635Y24738D02*
D03*
X58500Y28320D02*
D03*
X50597Y60304D02*
D03*
X50397Y61543D02*
D03*
X57255Y30047D02*
D03*
X51699Y56557D02*
D03*
X71203Y50130D02*
D03*
X53886Y55294D02*
D03*
X66575Y57035D02*
D03*
X63110Y50597D02*
D03*
X67392Y30846D02*
D03*
X68608Y31763D02*
D03*
X66606Y50567D02*
D03*
X51360Y65304D02*
D03*
X91554Y56665D02*
D03*
X42367Y42189D02*
D03*
X39853Y42164D02*
D03*
X34722Y42139D02*
D03*
X30632Y44069D02*
D03*
X33045D02*
D03*
X7899Y21615D02*
D03*
X29743Y29794D02*
D03*
X30531Y30810D02*
D03*
X29362Y22987D02*
D03*
X37313Y42189D02*
D03*
X33034Y9003D02*
D03*
X34366Y9093D02*
D03*
X32944Y19101D02*
D03*
X32766Y17323D02*
D03*
X31674Y18210D02*
D03*
X20015Y16408D02*
D03*
X22581Y17374D02*
D03*
X23851Y38913D02*
D03*
X25400Y40361D02*
D03*
X20066Y40411D02*
D03*
X16231Y38938D02*
D03*
X17501Y39802D02*
D03*
X24974Y22042D02*
D03*
X25097Y13153D02*
D03*
X10617Y35052D02*
D03*
X8001Y34036D02*
D03*
X29185Y42926D02*
D03*
X26645Y41275D02*
D03*
X15291Y40538D02*
D03*
X13030D02*
D03*
X11963Y43891D02*
D03*
X11937Y15241D02*
D03*
X7391Y18161D02*
D03*
X8992Y17932D02*
D03*
X8890Y19380D02*
D03*
X25121Y19202D02*
D03*
X23876Y18288D02*
D03*
X27915Y40411D02*
D03*
X18771Y39853D02*
D03*
X7849Y32756D02*
D03*
X40225Y25663D02*
D03*
X27635Y16485D02*
D03*
X31293Y16510D02*
D03*
X28968Y13767D02*
D03*
X31633Y13015D02*
D03*
X31396Y10902D02*
D03*
X24079Y4228D02*
D03*
X21209Y12573D02*
D03*
X16408Y12243D02*
D03*
X27050Y3278D02*
D03*
X28397Y9398D02*
D03*
X28372Y5283D02*
D03*
X18720Y12243D02*
D03*
Y10033D02*
D03*
X23318Y65011D02*
D03*
X18324Y65014D02*
D03*
X13310Y65003D02*
D03*
X28296Y64993D02*
D03*
X33310Y65003D02*
D03*
X38303Y65000D02*
D03*
D77*
X93857Y12826D02*
D03*
D78*
X32004Y60046D02*
D03*
X17479Y57976D02*
D03*
D79*
X20289Y42976D02*
D03*
X21559D02*
D03*
X22829D02*
D03*
X24099D02*
D03*
X25369D02*
D03*
X26639D02*
D03*
X27909D02*
D03*
X29179D02*
D03*
D03*
D80*
X12686Y31478D02*
D03*
Y30208D02*
D03*
Y28938D02*
D03*
Y27668D02*
D03*
Y26398D02*
D03*
Y25128D02*
D03*
D81*
X10378Y14326D02*
D03*
X8421Y15241D02*
D03*
D82*
Y13411D02*
D03*
D83*
X32309Y10871D02*
D03*
D84*
X35357D02*
D03*
D85*
X26924Y11218D02*
D03*
Y9458D02*
D03*
X25070Y11218D02*
D03*
Y9458D02*
D03*
D86*
X16408Y14224D02*
D03*
Y15174D02*
D03*
Y13274D02*
D03*
X18741D02*
D03*
Y14224D02*
D03*
X24871Y6233D02*
D03*
Y7183D02*
D03*
X27203D02*
D03*
Y5283D02*
D03*
D87*
X18741Y15174D02*
D03*
X24871Y5283D02*
D03*
D88*
X21831Y5844D02*
D03*
Y3664D02*
D03*
X14631Y5844D02*
D03*
Y3654D02*
D03*
D89*
X15981Y6724D02*
D03*
X17481D02*
D03*
X20481D02*
D03*
D90*
X11024Y4674D02*
D03*
D91*
X12649D02*
D03*
M02*
