G04*
G04 #@! TF.GenerationSoftware,Altium Limited,Altium Designer,21.2.1 (34)*
G04*
G04 Layer_Color=2752767*
%FSLAX43Y43*%
%MOMM*%
G71*
G04*
G04 #@! TF.SameCoordinates,D37F3DA0-8DBA-475A-B69E-14A0DF471598*
G04*
G04*
G04 #@! TF.FilePolarity,Positive*
G04*
G01*
G75*
%ADD103C,0.051*%
%ADD104C,0.068*%
D103*
X52383Y3194D02*
Y3600D01*
X52789D01*
Y3194D01*
X52383D01*
Y71689D02*
Y72095D01*
X52789D01*
Y71689D01*
X52383D01*
X71157Y11810D02*
X70954Y12216D01*
X71360D01*
X71157Y11810D01*
X71261Y14349D02*
X71058Y14755D01*
X71464D01*
X71261Y14349D01*
X71236Y16864D02*
X71033Y17270D01*
X71439D01*
X71236Y16864D01*
X71261Y19429D02*
X71058Y19835D01*
X71464D01*
X71261Y19429D01*
Y21969D02*
X71058Y22375D01*
X71464D01*
X71261Y21969D01*
Y24509D02*
X71058Y24915D01*
X71464D01*
X71261Y24509D01*
X16737Y4547D02*
X16839Y4648D01*
X16940D01*
X16839Y4750D01*
X16940Y4851D01*
X16839D01*
X16737Y4953D01*
X16636Y4851D01*
X16534D01*
X16636Y4750D01*
X16534Y4648D01*
X16636D01*
X16737Y4547D01*
X19737D02*
X19839Y4648D01*
X19940D01*
X19839Y4750D01*
X19940Y4851D01*
X19839D01*
X19737Y4953D01*
X19636Y4851D01*
X19534D01*
X19636Y4750D01*
X19534Y4648D01*
X19636D01*
X19737Y4547D01*
X42189Y54864D02*
X42291Y55067D01*
X42189Y55270D01*
X42393Y55169D01*
X42596Y55270D01*
X42494Y55067D01*
X42596Y54864D01*
X42393Y54966D01*
X42189Y54864D01*
X81133Y26989D02*
X81235Y27192D01*
X81133Y27395D01*
X81336Y27294D01*
X81539Y27395D01*
X81438Y27192D01*
X81539Y26989D01*
X81336Y27090D01*
X81133Y26989D01*
X64647Y28015D02*
X64748Y28218D01*
X64647Y28421D01*
X64850Y28320D01*
X65053Y28421D01*
X64951Y28218D01*
X65053Y28015D01*
X64850Y28116D01*
X64647Y28015D01*
X59567Y28116D02*
X59668Y28320D01*
X59567Y28523D01*
X59770Y28421D01*
X59973Y28523D01*
X59871Y28320D01*
X59973Y28116D01*
X59770Y28218D01*
X59567Y28116D01*
X50321Y25475D02*
X50423Y25678D01*
X50321Y25881D01*
X50524Y25780D01*
X50727Y25881D01*
X50626Y25678D01*
X50727Y25475D01*
X50524Y25576D01*
X50321Y25475D01*
X49439Y8557D02*
X49541Y8760D01*
X49439Y8963D01*
X49642Y8861D01*
X49845Y8963D01*
X49744Y8760D01*
X49845Y8557D01*
X49642Y8658D01*
X49439Y8557D01*
X84052Y26999D02*
X84154Y27202D01*
X84052Y27405D01*
X84255Y27304D01*
X84459Y27405D01*
X84357Y27202D01*
X84459Y26999D01*
X84255Y27100D01*
X84052Y26999D01*
X60837Y29793D02*
X60938Y29996D01*
X60837Y30199D01*
X61040Y30098D01*
X61243Y30199D01*
X61141Y29996D01*
X61243Y29793D01*
X61040Y29894D01*
X60837Y29793D01*
X80928Y17093D02*
X81030Y17296D01*
X80928Y17499D01*
X81131Y17398D01*
X81334Y17499D01*
X81233Y17296D01*
X81334Y17093D01*
X81131Y17194D01*
X80928Y17093D01*
X85906Y18312D02*
X86008Y18515D01*
X85906Y18718D01*
X86110Y18617D01*
X86313Y18718D01*
X86211Y18515D01*
X86313Y18312D01*
X86110Y18414D01*
X85906Y18312D01*
X91367Y18109D02*
X91469Y18312D01*
X91367Y18515D01*
X91571Y18414D01*
X91774Y18515D01*
X91672Y18312D01*
X91774Y18109D01*
X91571Y18210D01*
X91367Y18109D01*
X89945Y16940D02*
X90047Y17144D01*
X89945Y17347D01*
X90148Y17245D01*
X90351Y17347D01*
X90250Y17144D01*
X90351Y16940D01*
X90148Y17042D01*
X89945Y16940D01*
X62107Y28943D02*
X62208Y29146D01*
X62107Y29349D01*
X62310Y29248D01*
X62513Y29349D01*
X62411Y29146D01*
X62513Y28943D01*
X62310Y29044D01*
X62107Y28943D01*
X84027Y28904D02*
X84128Y29107D01*
X84027Y29310D01*
X84230Y29209D01*
X84433Y29310D01*
X84332Y29107D01*
X84433Y28904D01*
X84230Y29005D01*
X84027Y28904D01*
X58297Y59409D02*
X58398Y59612D01*
X58297Y59816D01*
X58500Y59714D01*
X58703Y59816D01*
X58601Y59612D01*
X58703Y59409D01*
X58500Y59511D01*
X58297Y59409D01*
Y57555D02*
X58398Y57758D01*
X58297Y57961D01*
X58500Y57860D01*
X58703Y57961D01*
X58601Y57758D01*
X58703Y57555D01*
X58500Y57657D01*
X58297Y57555D01*
X73968Y50900D02*
X74070Y51103D01*
X73968Y51307D01*
X74172Y51205D01*
X74375Y51307D01*
X74273Y51103D01*
X74375Y50900D01*
X74172Y51002D01*
X73968Y50900D01*
X81808Y40614D02*
X81910Y40817D01*
X81808Y41020D01*
X82011Y40919D01*
X82214Y41020D01*
X82113Y40817D01*
X82214Y40614D01*
X82011Y40715D01*
X81808Y40614D01*
X80649Y37159D02*
X80750Y37362D01*
X80649Y37565D01*
X80852Y37464D01*
X81055Y37565D01*
X80953Y37362D01*
X81055Y37159D01*
X80852Y37260D01*
X80649Y37159D01*
X76534Y53694D02*
X76635Y53897D01*
X76534Y54101D01*
X76737Y53999D01*
X76940Y54101D01*
X76839Y53897D01*
X76940Y53694D01*
X76737Y53796D01*
X76534Y53694D01*
X69727Y28105D02*
X69828Y28308D01*
X69727Y28511D01*
X69930Y28409D01*
X70133Y28511D01*
X70031Y28308D01*
X70133Y28105D01*
X69930Y28206D01*
X69727Y28105D01*
X62742Y59257D02*
X62843Y59460D01*
X62742Y59663D01*
X62945Y59562D01*
X63148Y59663D01*
X63046Y59460D01*
X63148Y59257D01*
X62945Y59358D01*
X62742Y59257D01*
X88827Y61517D02*
X88929Y61721D01*
X88827Y61924D01*
X89031Y61822D01*
X89234Y61924D01*
X89132Y61721D01*
X89234Y61517D01*
X89031Y61619D01*
X88827Y61517D01*
X93857Y61365D02*
X93958Y61568D01*
X93857Y61771D01*
X94060Y61670D01*
X94263Y61771D01*
X94161Y61568D01*
X94263Y61365D01*
X94060Y61467D01*
X93857Y61365D01*
X99013Y61213D02*
X99114Y61416D01*
X99013Y61619D01*
X99216Y61517D01*
X99419Y61619D01*
X99318Y61416D01*
X99419Y61213D01*
X99216Y61314D01*
X99013Y61213D01*
X49432Y24535D02*
X49534Y24738D01*
X49432Y24941D01*
X49635Y24840D01*
X49838Y24941D01*
X49737Y24738D01*
X49838Y24535D01*
X49635Y24637D01*
X49432Y24535D01*
X58297Y28116D02*
X58398Y28320D01*
X58297Y28523D01*
X58500Y28421D01*
X58703Y28523D01*
X58601Y28320D01*
X58703Y28116D01*
X58500Y28218D01*
X58297Y28116D01*
X50394Y60100D02*
X50495Y60304D01*
X50394Y60507D01*
X50597Y60405D01*
X50800Y60507D01*
X50699Y60304D01*
X50800Y60100D01*
X50597Y60202D01*
X50394Y60100D01*
X50194Y61340D02*
X50296Y61543D01*
X50194Y61746D01*
X50397Y61644D01*
X50600Y61746D01*
X50499Y61543D01*
X50600Y61340D01*
X50397Y61441D01*
X50194Y61340D01*
X57052Y29844D02*
X57154Y30047D01*
X57052Y30250D01*
X57255Y30148D01*
X57458Y30250D01*
X57357Y30047D01*
X57458Y29844D01*
X57255Y29945D01*
X57052Y29844D01*
X51496Y56354D02*
X51597Y56557D01*
X51496Y56760D01*
X51699Y56659D01*
X51902Y56760D01*
X51801Y56557D01*
X51902Y56354D01*
X51699Y56456D01*
X51496Y56354D01*
X71000Y49926D02*
X71102Y50130D01*
X71000Y50333D01*
X71203Y50231D01*
X71406Y50333D01*
X71305Y50130D01*
X71406Y49926D01*
X71203Y50028D01*
X71000Y49926D01*
X53683Y55091D02*
X53784Y55294D01*
X53683Y55498D01*
X53886Y55396D01*
X54089Y55498D01*
X53987Y55294D01*
X54089Y55091D01*
X53886Y55193D01*
X53683Y55091D01*
X66372Y56831D02*
X66474Y57035D01*
X66372Y57238D01*
X66575Y57136D01*
X66779Y57238D01*
X66677Y57035D01*
X66779Y56831D01*
X66575Y56933D01*
X66372Y56831D01*
X62907Y50394D02*
X63009Y50597D01*
X62907Y50801D01*
X63110Y50699D01*
X63314Y50801D01*
X63212Y50597D01*
X63314Y50394D01*
X63110Y50496D01*
X62907Y50394D01*
X67188Y30643D02*
X67290Y30846D01*
X67188Y31049D01*
X67392Y30948D01*
X67595Y31049D01*
X67493Y30846D01*
X67595Y30643D01*
X67392Y30744D01*
X67188Y30643D01*
X68405Y31560D02*
X68507Y31763D01*
X68405Y31966D01*
X68608Y31865D01*
X68811Y31966D01*
X68710Y31763D01*
X68811Y31560D01*
X68608Y31662D01*
X68405Y31560D01*
X66403Y50363D02*
X66505Y50567D01*
X66403Y50770D01*
X66606Y50668D01*
X66809Y50770D01*
X66708Y50567D01*
X66809Y50363D01*
X66606Y50465D01*
X66403Y50363D01*
X51157Y65101D02*
X51259Y65304D01*
X51157Y65508D01*
X51360Y65406D01*
X51563Y65508D01*
X51462Y65304D01*
X51563Y65101D01*
X51360Y65203D01*
X51157Y65101D01*
X91351Y56462D02*
X91453Y56665D01*
X91351Y56868D01*
X91554Y56767D01*
X91757Y56868D01*
X91656Y56665D01*
X91757Y56462D01*
X91554Y56563D01*
X91351Y56462D01*
X42164Y41986D02*
X42266Y42189D01*
X42164Y42393D01*
X42367Y42291D01*
X42570Y42393D01*
X42469Y42189D01*
X42570Y41986D01*
X42367Y42088D01*
X42164Y41986D01*
X39649Y41961D02*
X39751Y42164D01*
X39649Y42367D01*
X39853Y42266D01*
X40056Y42367D01*
X39954Y42164D01*
X40056Y41961D01*
X39853Y42062D01*
X39649Y41961D01*
X34519Y41935D02*
X34620Y42139D01*
X34519Y42342D01*
X34722Y42240D01*
X34925Y42342D01*
X34823Y42139D01*
X34925Y41935D01*
X34722Y42037D01*
X34519Y41935D01*
X30429Y43866D02*
X30531Y44069D01*
X30429Y44272D01*
X30632Y44171D01*
X30836Y44272D01*
X30734Y44069D01*
X30836Y43866D01*
X30632Y43967D01*
X30429Y43866D01*
X32842D02*
X32944Y44069D01*
X32842Y44272D01*
X33045Y44171D01*
X33249Y44272D01*
X33147Y44069D01*
X33249Y43866D01*
X33045Y43967D01*
X32842Y43866D01*
X7696Y21412D02*
X7798Y21615D01*
X7696Y21819D01*
X7899Y21717D01*
X8103Y21819D01*
X8001Y21615D01*
X8103Y21412D01*
X7899Y21514D01*
X7696Y21412D01*
X29540Y29591D02*
X29642Y29794D01*
X29540Y29997D01*
X29743Y29896D01*
X29947Y29997D01*
X29845Y29794D01*
X29947Y29591D01*
X29743Y29693D01*
X29540Y29591D01*
X30328Y30607D02*
X30429Y30810D01*
X30328Y31013D01*
X30531Y30912D01*
X30734Y31013D01*
X30632Y30810D01*
X30734Y30607D01*
X30531Y30709D01*
X30328Y30607D01*
X29159Y22784D02*
X29261Y22987D01*
X29159Y23190D01*
X29362Y23089D01*
X29566Y23190D01*
X29464Y22987D01*
X29566Y22784D01*
X29362Y22885D01*
X29159Y22784D01*
X37109Y41986D02*
X37211Y42189D01*
X37109Y42393D01*
X37313Y42291D01*
X37516Y42393D01*
X37414Y42189D01*
X37516Y41986D01*
X37313Y42088D01*
X37109Y41986D01*
X32831Y8800D02*
X32932Y9003D01*
X32831Y9206D01*
X33034Y9105D01*
X33237Y9206D01*
X33135Y9003D01*
X33237Y8800D01*
X33034Y8902D01*
X32831Y8800D01*
X34163Y8890D02*
X34265Y9093D01*
X34163Y9296D01*
X34366Y9195D01*
X34569Y9296D01*
X34468Y9093D01*
X34569Y8890D01*
X34366Y8992D01*
X34163Y8890D01*
X32741Y18898D02*
X32842Y19101D01*
X32741Y19304D01*
X32944Y19202D01*
X33147Y19304D01*
X33045Y19101D01*
X33147Y18898D01*
X32944Y18999D01*
X32741Y18898D01*
X32563Y17120D02*
X32664Y17323D01*
X32563Y17526D01*
X32766Y17424D01*
X32969Y17526D01*
X32868Y17323D01*
X32969Y17120D01*
X32766Y17221D01*
X32563Y17120D01*
X31471Y18007D02*
X31572Y18210D01*
X31471Y18413D01*
X31674Y18312D01*
X31877Y18413D01*
X31775Y18210D01*
X31877Y18007D01*
X31674Y18108D01*
X31471Y18007D01*
X19812Y16205D02*
X19914Y16408D01*
X19812Y16612D01*
X20015Y16510D01*
X20218Y16612D01*
X20117Y16408D01*
X20218Y16205D01*
X20015Y16307D01*
X19812Y16205D01*
X22377Y17170D02*
X22479Y17374D01*
X22377Y17577D01*
X22581Y17475D01*
X22784Y17577D01*
X22682Y17374D01*
X22784Y17170D01*
X22581Y17272D01*
X22377Y17170D01*
X23647Y38710D02*
X23749Y38913D01*
X23647Y39116D01*
X23851Y39014D01*
X24054Y39116D01*
X23952Y38913D01*
X24054Y38710D01*
X23851Y38811D01*
X23647Y38710D01*
X25197Y40157D02*
X25298Y40361D01*
X25197Y40564D01*
X25400Y40462D01*
X25603Y40564D01*
X25502Y40361D01*
X25603Y40157D01*
X25400Y40259D01*
X25197Y40157D01*
X19863Y40208D02*
X19964Y40411D01*
X19863Y40615D01*
X20066Y40513D01*
X20269Y40615D01*
X20168Y40411D01*
X20269Y40208D01*
X20066Y40310D01*
X19863Y40208D01*
X16027Y38735D02*
X16129Y38938D01*
X16027Y39141D01*
X16231Y39040D01*
X16434Y39141D01*
X16332Y38938D01*
X16434Y38735D01*
X16231Y38837D01*
X16027Y38735D01*
X17297Y39599D02*
X17399Y39802D01*
X17297Y40005D01*
X17501Y39903D01*
X17704Y40005D01*
X17602Y39802D01*
X17704Y39599D01*
X17501Y39700D01*
X17297Y39599D01*
X24770Y21839D02*
X24872Y22042D01*
X24770Y22245D01*
X24974Y22143D01*
X25177Y22245D01*
X25075Y22042D01*
X25177Y21839D01*
X24974Y21940D01*
X24770Y21839D01*
X24894Y12950D02*
X24995Y13153D01*
X24894Y13356D01*
X25097Y13255D01*
X25300Y13356D01*
X25198Y13153D01*
X25300Y12950D01*
X25097Y13052D01*
X24894Y12950D01*
X10414Y34849D02*
X10516Y35052D01*
X10414Y35255D01*
X10617Y35154D01*
X10820Y35255D01*
X10719Y35052D01*
X10820Y34849D01*
X10617Y34950D01*
X10414Y34849D01*
X7798Y33833D02*
X7899Y34036D01*
X7798Y34239D01*
X8001Y34138D01*
X8204Y34239D01*
X8103Y34036D01*
X8204Y33833D01*
X8001Y33934D01*
X7798Y33833D01*
X28981Y42723D02*
X29083Y42926D01*
X28981Y43129D01*
X29185Y43028D01*
X29388Y43129D01*
X29286Y42926D01*
X29388Y42723D01*
X29185Y42824D01*
X28981Y42723D01*
X26441Y41072D02*
X26543Y41275D01*
X26441Y41478D01*
X26645Y41377D01*
X26848Y41478D01*
X26746Y41275D01*
X26848Y41072D01*
X26645Y41173D01*
X26441Y41072D01*
X15088Y40335D02*
X15189Y40538D01*
X15088Y40742D01*
X15291Y40640D01*
X15494Y40742D01*
X15392Y40538D01*
X15494Y40335D01*
X15291Y40437D01*
X15088Y40335D01*
X12827D02*
X12929Y40538D01*
X12827Y40742D01*
X13030Y40640D01*
X13233Y40742D01*
X13132Y40538D01*
X13233Y40335D01*
X13030Y40437D01*
X12827Y40335D01*
X11760Y43688D02*
X11862Y43891D01*
X11760Y44094D01*
X11963Y43993D01*
X12167Y44094D01*
X12065Y43891D01*
X12167Y43688D01*
X11963Y43790D01*
X11760Y43688D01*
X11734Y15037D02*
X11836Y15241D01*
X11734Y15444D01*
X11937Y15342D01*
X12141Y15444D01*
X12039Y15241D01*
X12141Y15037D01*
X11937Y15139D01*
X11734Y15037D01*
X7188Y17958D02*
X7290Y18161D01*
X7188Y18364D01*
X7391Y18263D01*
X7595Y18364D01*
X7493Y18161D01*
X7595Y17958D01*
X7391Y18059D01*
X7188Y17958D01*
X8788Y17729D02*
X8890Y17932D01*
X8788Y18136D01*
X8992Y18034D01*
X9195Y18136D01*
X9093Y17932D01*
X9195Y17729D01*
X8992Y17831D01*
X8788Y17729D01*
X8687Y19177D02*
X8788Y19380D01*
X8687Y19583D01*
X8890Y19482D01*
X9093Y19583D01*
X8992Y19380D01*
X9093Y19177D01*
X8890Y19279D01*
X8687Y19177D01*
X24917Y18999D02*
X25019Y19202D01*
X24917Y19406D01*
X25121Y19304D01*
X25324Y19406D01*
X25222Y19202D01*
X25324Y18999D01*
X25121Y19101D01*
X24917Y18999D01*
X23673Y18085D02*
X23774Y18288D01*
X23673Y18491D01*
X23876Y18390D01*
X24079Y18491D01*
X23978Y18288D01*
X24079Y18085D01*
X23876Y18186D01*
X23673Y18085D01*
X27711Y40208D02*
X27813Y40411D01*
X27711Y40615D01*
X27915Y40513D01*
X28118Y40615D01*
X28016Y40411D01*
X28118Y40208D01*
X27915Y40310D01*
X27711Y40208D01*
X18567Y39649D02*
X18669Y39853D01*
X18567Y40056D01*
X18771Y39954D01*
X18974Y40056D01*
X18872Y39853D01*
X18974Y39649D01*
X18771Y39751D01*
X18567Y39649D01*
X7645Y32552D02*
X7747Y32756D01*
X7645Y32959D01*
X7849Y32857D01*
X8052Y32959D01*
X7950Y32756D01*
X8052Y32552D01*
X7849Y32654D01*
X7645Y32552D01*
X40022Y25459D02*
X40123Y25663D01*
X40022Y25866D01*
X40225Y25764D01*
X40428Y25866D01*
X40327Y25663D01*
X40428Y25459D01*
X40225Y25561D01*
X40022Y25459D01*
X27432Y16281D02*
X27534Y16485D01*
X27432Y16688D01*
X27635Y16586D01*
X27838Y16688D01*
X27737Y16485D01*
X27838Y16281D01*
X27635Y16383D01*
X27432Y16281D01*
X31090Y16307D02*
X31191Y16510D01*
X31090Y16713D01*
X31293Y16612D01*
X31496Y16713D01*
X31394Y16510D01*
X31496Y16307D01*
X31293Y16408D01*
X31090Y16307D01*
X28765Y13564D02*
X28866Y13767D01*
X28765Y13970D01*
X28968Y13868D01*
X29171Y13970D01*
X29069Y13767D01*
X29171Y13564D01*
X28968Y13665D01*
X28765Y13564D01*
X31430Y12812D02*
X31531Y13015D01*
X31430Y13218D01*
X31633Y13116D01*
X31836Y13218D01*
X31735Y13015D01*
X31836Y12812D01*
X31633Y12913D01*
X31430Y12812D01*
X31192Y10699D02*
X31294Y10902D01*
X31192Y11105D01*
X31396Y11003D01*
X31599Y11105D01*
X31497Y10902D01*
X31599Y10699D01*
X31396Y10800D01*
X31192Y10699D01*
X23876Y4025D02*
X23978Y4228D01*
X23876Y4431D01*
X24079Y4330D01*
X24282Y4431D01*
X24181Y4228D01*
X24282Y4025D01*
X24079Y4126D01*
X23876Y4025D01*
X21006Y12370D02*
X21107Y12573D01*
X21006Y12776D01*
X21209Y12675D01*
X21412Y12776D01*
X21311Y12573D01*
X21412Y12370D01*
X21209Y12471D01*
X21006Y12370D01*
X16205Y12040D02*
X16307Y12243D01*
X16205Y12446D01*
X16408Y12344D01*
X16612Y12446D01*
X16510Y12243D01*
X16612Y12040D01*
X16408Y12141D01*
X16205Y12040D01*
X26846Y3075D02*
X26948Y3278D01*
X26846Y3481D01*
X27050Y3380D01*
X27253Y3481D01*
X27151Y3278D01*
X27253Y3075D01*
X27050Y3176D01*
X26846Y3075D01*
X28194Y9195D02*
X28296Y9398D01*
X28194Y9601D01*
X28397Y9500D01*
X28600Y9601D01*
X28499Y9398D01*
X28600Y9195D01*
X28397Y9296D01*
X28194Y9195D01*
X28169Y5080D02*
X28270Y5283D01*
X28169Y5486D01*
X28372Y5385D01*
X28575Y5486D01*
X28473Y5283D01*
X28575Y5080D01*
X28372Y5182D01*
X28169Y5080D01*
X18517Y12040D02*
X18618Y12243D01*
X18517Y12446D01*
X18720Y12344D01*
X18923Y12446D01*
X18821Y12243D01*
X18923Y12040D01*
X18720Y12141D01*
X18517Y12040D01*
Y9830D02*
X18618Y10033D01*
X18517Y10236D01*
X18720Y10135D01*
X18923Y10236D01*
X18821Y10033D01*
X18923Y9830D01*
X18720Y9931D01*
X18517Y9830D01*
X23114Y64808D02*
X23216Y65011D01*
X23114Y65214D01*
X23318Y65112D01*
X23521Y65214D01*
X23419Y65011D01*
X23521Y64808D01*
X23318Y64909D01*
X23114Y64808D01*
X18121Y64810D02*
X18223Y65014D01*
X18121Y65217D01*
X18324Y65115D01*
X18528Y65217D01*
X18426Y65014D01*
X18528Y64810D01*
X18324Y64912D01*
X18121Y64810D01*
X13107Y64800D02*
X13208Y65003D01*
X13107Y65206D01*
X13310Y65105D01*
X13513Y65206D01*
X13412Y65003D01*
X13513Y64800D01*
X13310Y64902D01*
X13107Y64800D01*
X28092Y64790D02*
X28194Y64993D01*
X28092Y65196D01*
X28296Y65094D01*
X28499Y65196D01*
X28397Y64993D01*
X28499Y64790D01*
X28296Y64891D01*
X28092Y64790D01*
X33107Y64800D02*
X33208Y65003D01*
X33107Y65206D01*
X33310Y65105D01*
X33513Y65206D01*
X33412Y65003D01*
X33513Y64800D01*
X33310Y64902D01*
X33107Y64800D01*
X38100Y64797D02*
X38202Y65000D01*
X38100Y65204D01*
X38303Y65102D01*
X38506Y65204D01*
X38405Y65000D01*
X38506Y64797D01*
X38303Y64899D01*
X38100Y64797D01*
D104*
X93999Y18346D02*
G03*
X93999Y18346I-203J0D01*
G01*
Y46146D02*
G03*
X93999Y46146I-203J0D01*
G01*
M02*
