G04*
G04 #@! TF.GenerationSoftware,Altium Limited,Altium Designer,21.2.1 (34)*
G04*
G04 Layer_Color=128*
%FSLAX43Y43*%
%MOMM*%
G71*
G04*
G04 #@! TF.SameCoordinates,D37F3DA0-8DBA-475A-B69E-14A0DF471598*
G04*
G04*
G04 #@! TF.FilePolarity,Positive*
G04*
G01*
G75*
%ADD103C,0.051*%
D103*
X51836Y3397D02*
X53336D01*
X52586Y2647D02*
Y4147D01*
X51836Y71892D02*
X53336D01*
X52586Y71142D02*
Y72642D01*
X92796Y18346D02*
X94796D01*
X93796Y17346D02*
Y19346D01*
X92796Y46146D02*
X94796D01*
X93796Y45146D02*
Y47146D01*
X70657Y12013D02*
X71657D01*
X71157Y11513D02*
Y12513D01*
X70761Y14552D02*
X71761D01*
X71261Y14052D02*
Y15052D01*
X70736Y17067D02*
X71736D01*
X71236Y16567D02*
Y17567D01*
X70761Y19632D02*
X71761D01*
X71261Y19132D02*
Y20132D01*
X70761Y22172D02*
X71761D01*
X71261Y21672D02*
Y22672D01*
X70761Y24712D02*
X71761D01*
X71261Y24212D02*
Y25212D01*
X16337Y4750D02*
X17137D01*
X16737Y4350D02*
Y5150D01*
X19337Y4750D02*
X20137D01*
X19737Y4350D02*
Y5150D01*
X42143Y55067D02*
X42643D01*
X42393Y54817D02*
Y55317D01*
X81086Y27192D02*
X81586D01*
X81336Y26942D02*
Y27442D01*
X64600Y28218D02*
X65100D01*
X64850Y27968D02*
Y28468D01*
X59520Y28320D02*
X60020D01*
X59770Y28070D02*
Y28570D01*
X50274Y25678D02*
X50774D01*
X50524Y25428D02*
Y25928D01*
X49392Y8760D02*
X49892D01*
X49642Y8510D02*
Y9010D01*
X84005Y27202D02*
X84505D01*
X84255Y26952D02*
Y27452D01*
X60790Y29996D02*
X61290D01*
X61040Y29746D02*
Y30246D01*
X80881Y17296D02*
X81381D01*
X81131Y17046D02*
Y17546D01*
X85860Y18515D02*
X86360D01*
X86110Y18265D02*
Y18765D01*
X91321Y18312D02*
X91821D01*
X91571Y18062D02*
Y18562D01*
X89898Y17144D02*
X90398D01*
X90148Y16894D02*
Y17394D01*
X62060Y29146D02*
X62560D01*
X62310Y28896D02*
Y29396D01*
X83980Y29107D02*
X84480D01*
X84230Y28857D02*
Y29357D01*
X58250Y59612D02*
X58750D01*
X58500Y59362D02*
Y59862D01*
X58250Y57758D02*
X58750D01*
X58500Y57508D02*
Y58008D01*
X73922Y51103D02*
X74422D01*
X74172Y50853D02*
Y51353D01*
X81761Y40817D02*
X82261D01*
X82011Y40567D02*
Y41067D01*
X80602Y37362D02*
X81102D01*
X80852Y37112D02*
Y37612D01*
X76487Y53897D02*
X76987D01*
X76737Y53647D02*
Y54147D01*
X69680Y28308D02*
X70180D01*
X69930Y28058D02*
Y28558D01*
X62695Y59460D02*
X63195D01*
X62945Y59210D02*
Y59710D01*
X88781Y61721D02*
X89281D01*
X89031Y61471D02*
Y61971D01*
X93810Y61568D02*
X94310D01*
X94060Y61318D02*
Y61818D01*
X98966Y61416D02*
X99466D01*
X99216Y61166D02*
Y61666D01*
X49385Y24738D02*
X49885D01*
X49635Y24488D02*
Y24988D01*
X58250Y28320D02*
X58750D01*
X58500Y28070D02*
Y28570D01*
X50347Y60304D02*
X50847D01*
X50597Y60054D02*
Y60554D01*
X50147Y61543D02*
X50647D01*
X50397Y61293D02*
Y61793D01*
X57005Y30047D02*
X57505D01*
X57255Y29797D02*
Y30297D01*
X51449Y56557D02*
X51949D01*
X51699Y56307D02*
Y56807D01*
X70953Y50130D02*
X71453D01*
X71203Y49880D02*
Y50380D01*
X53636Y55294D02*
X54136D01*
X53886Y55044D02*
Y55544D01*
X66325Y57035D02*
X66825D01*
X66575Y56785D02*
Y57285D01*
X62860Y50597D02*
X63360D01*
X63110Y50347D02*
Y50847D01*
X67142Y30846D02*
X67642D01*
X67392Y30596D02*
Y31096D01*
X68358Y31763D02*
X68858D01*
X68608Y31513D02*
Y32013D01*
X66356Y50567D02*
X66856D01*
X66606Y50317D02*
Y50817D01*
X51110Y65304D02*
X51610D01*
X51360Y65054D02*
Y65554D01*
X91304Y56665D02*
X91804D01*
X91554Y56415D02*
Y56915D01*
X42117Y42189D02*
X42617D01*
X42367Y41939D02*
Y42439D01*
X39603Y42164D02*
X40103D01*
X39853Y41914D02*
Y42414D01*
X34472Y42139D02*
X34972D01*
X34722Y41889D02*
Y42389D01*
X30382Y44069D02*
X30882D01*
X30632Y43819D02*
Y44319D01*
X32795Y44069D02*
X33295D01*
X33045Y43819D02*
Y44319D01*
X7649Y21615D02*
X8149D01*
X7899Y21365D02*
Y21865D01*
X29493Y29794D02*
X29993D01*
X29743Y29544D02*
Y30044D01*
X30281Y30810D02*
X30781D01*
X30531Y30560D02*
Y31060D01*
X29112Y22987D02*
X29612D01*
X29362Y22737D02*
Y23237D01*
X37063Y42189D02*
X37563D01*
X37313Y41939D02*
Y42439D01*
X32784Y9003D02*
X33284D01*
X33034Y8753D02*
Y9253D01*
X34116Y9093D02*
X34616D01*
X34366Y8843D02*
Y9343D01*
X32694Y19101D02*
X33194D01*
X32944Y18851D02*
Y19351D01*
X32516Y17323D02*
X33016D01*
X32766Y17073D02*
Y17573D01*
X31424Y18210D02*
X31924D01*
X31674Y17960D02*
Y18460D01*
X19765Y16408D02*
X20265D01*
X20015Y16158D02*
Y16658D01*
X22331Y17374D02*
X22831D01*
X22581Y17124D02*
Y17624D01*
X23601Y38913D02*
X24101D01*
X23851Y38663D02*
Y39163D01*
X25150Y40361D02*
X25650D01*
X25400Y40111D02*
Y40611D01*
X19816Y40411D02*
X20316D01*
X20066Y40161D02*
Y40661D01*
X15981Y38938D02*
X16481D01*
X16231Y38688D02*
Y39188D01*
X17251Y39802D02*
X17751D01*
X17501Y39552D02*
Y40052D01*
X24724Y22042D02*
X25224D01*
X24974Y21792D02*
Y22292D01*
X24847Y13153D02*
X25347D01*
X25097Y12903D02*
Y13403D01*
X10367Y35052D02*
X10867D01*
X10617Y34802D02*
Y35302D01*
X7751Y34036D02*
X8251D01*
X8001Y33786D02*
Y34286D01*
X28935Y42926D02*
X29435D01*
X29185Y42676D02*
Y43176D01*
X26395Y41275D02*
X26895D01*
X26645Y41025D02*
Y41525D01*
X15041Y40538D02*
X15541D01*
X15291Y40288D02*
Y40788D01*
X12780Y40538D02*
X13280D01*
X13030Y40288D02*
Y40788D01*
X11713Y43891D02*
X12213D01*
X11963Y43641D02*
Y44141D01*
X11687Y15241D02*
X12187D01*
X11937Y14991D02*
Y15491D01*
X7141Y18161D02*
X7641D01*
X7391Y17911D02*
Y18411D01*
X8742Y17932D02*
X9242D01*
X8992Y17682D02*
Y18182D01*
X8640Y19380D02*
X9140D01*
X8890Y19130D02*
Y19630D01*
X24871Y19202D02*
X25371D01*
X25121Y18952D02*
Y19452D01*
X23626Y18288D02*
X24126D01*
X23876Y18038D02*
Y18538D01*
X27665Y40411D02*
X28165D01*
X27915Y40161D02*
Y40661D01*
X18521Y39853D02*
X19021D01*
X18771Y39603D02*
Y40103D01*
X7599Y32756D02*
X8099D01*
X7849Y32506D02*
Y33006D01*
X39975Y25663D02*
X40475D01*
X40225Y25413D02*
Y25913D01*
X27385Y16485D02*
X27885D01*
X27635Y16235D02*
Y16735D01*
X31043Y16510D02*
X31543D01*
X31293Y16260D02*
Y16760D01*
X28718Y13767D02*
X29218D01*
X28968Y13517D02*
Y14017D01*
X31383Y13015D02*
X31883D01*
X31633Y12765D02*
Y13265D01*
X31146Y10902D02*
X31646D01*
X31396Y10652D02*
Y11152D01*
X23829Y4228D02*
X24329D01*
X24079Y3978D02*
Y4478D01*
X20959Y12573D02*
X21459D01*
X21209Y12323D02*
Y12823D01*
X16158Y12243D02*
X16658D01*
X16408Y11993D02*
Y12493D01*
X26800Y3278D02*
X27300D01*
X27050Y3028D02*
Y3528D01*
X28147Y9398D02*
X28647D01*
X28397Y9148D02*
Y9648D01*
X28122Y5283D02*
X28622D01*
X28372Y5033D02*
Y5533D01*
X18470Y12243D02*
X18970D01*
X18720Y11993D02*
Y12493D01*
X18470Y10033D02*
X18970D01*
X18720Y9783D02*
Y10283D01*
X23068Y65011D02*
X23568D01*
X23318Y64761D02*
Y65261D01*
X18074Y65014D02*
X18574D01*
X18324Y64764D02*
Y65264D01*
X13060Y65003D02*
X13560D01*
X13310Y64753D02*
Y65253D01*
X28046Y64993D02*
X28546D01*
X28296Y64743D02*
Y65243D01*
X33060Y65003D02*
X33560D01*
X33310Y64753D02*
Y65253D01*
X38053Y65000D02*
X38553D01*
X38303Y64750D02*
Y65250D01*
M02*
