G04*
G04 #@! TF.GenerationSoftware,Altium Limited,Altium Designer,21.2.1 (34)*
G04*
G04 Layer_Color=128*
%FSLAX43Y43*%
%MOMM*%
G71*
G04*
G04 #@! TF.SameCoordinates,D37F3DA0-8DBA-475A-B69E-14A0DF471598*
G04*
G04*
G04 #@! TF.FilePolarity,Positive*
G04*
G01*
G75*
%ADD17R,1.200X1.200*%
%ADD18R,1.900X1.900*%
%ADD19R,1.700X1.300*%
%ADD20R,1.600X1.400*%
%ADD21R,0.400X1.700*%
%ADD22R,1.300X1.300*%
%ADD23R,1.300X1.300*%
%ADD24R,0.900X2.000*%
%ADD25R,2.000X0.900*%
%ADD27R,1.000X0.950*%
%ADD33R,0.950X1.000*%
%ADD39O,1.200X4.000*%
%ADD73C,2.000*%
%ADD77R,1.200X4.000*%
%ADD78C,3.000*%
%ADD79O,1.000X3.000*%
%ADD80R,0.900X0.900*%
G04:AMPARAMS|DCode=81|XSize=1.2mm|YSize=0.7mm|CornerRadius=0.35mm|HoleSize=0mm|Usage=FLASHONLY|Rotation=0.000|XOffset=0mm|YOffset=0mm|HoleType=Round|Shape=RoundedRectangle|*
%AMROUNDEDRECTD81*
21,1,1.200,0.000,0,0,0.0*
21,1,0.500,0.700,0,0,0.0*
1,1,0.700,0.250,0.000*
1,1,0.700,-0.250,0.000*
1,1,0.700,-0.250,0.000*
1,1,0.700,0.250,0.000*
%
%ADD81ROUNDEDRECTD81*%
%ADD82R,1.200X0.700*%
%ADD83R,0.900X1.200*%
%ADD84R,0.900X1.200*%
%ADD85R,1.200X1.200*%
G04:AMPARAMS|DCode=86|XSize=1.6mm|YSize=0.7mm|CornerRadius=0.35mm|HoleSize=0mm|Usage=FLASHONLY|Rotation=180.000|XOffset=0mm|YOffset=0mm|HoleType=Round|Shape=RoundedRectangle|*
%AMROUNDEDRECTD86*
21,1,1.600,0.000,0,0,180.0*
21,1,0.900,0.700,0,0,180.0*
1,1,0.700,-0.450,0.000*
1,1,0.700,0.450,0.000*
1,1,0.700,0.450,0.000*
1,1,0.700,-0.450,0.000*
%
%ADD86ROUNDEDRECTD86*%
%ADD87R,1.600X0.700*%
%ADD88R,1.100X0.600*%
%ADD89R,0.500X1.400*%
%ADD90O,1.000X3.000*%
%ADD91R,1.000X3.000*%
D17*
X34814Y14884D02*
D03*
X33054D02*
D03*
X10956Y10770D02*
D03*
X12716D02*
D03*
X10956Y8407D02*
D03*
X12716D02*
D03*
D18*
X34925Y4098D02*
D03*
X32525D02*
D03*
D19*
X37254Y4095D02*
D03*
X30194D02*
D03*
D20*
X36925Y6548D02*
D03*
X30525D02*
D03*
D21*
X35025Y6973D02*
D03*
X34375D02*
D03*
X33725D02*
D03*
X33075D02*
D03*
X32425D02*
D03*
D22*
X20853Y29108D02*
D03*
X22696Y25468D02*
D03*
Y27303D02*
D03*
Y29138D02*
D03*
X24539Y29108D02*
D03*
D23*
X20853Y27273D02*
D03*
X20861Y25468D02*
D03*
X24531D02*
D03*
X24539Y27273D02*
D03*
D24*
X30196Y36803D02*
D03*
X28926D02*
D03*
X27656D02*
D03*
X26386D02*
D03*
X25116D02*
D03*
X23846D02*
D03*
X22576D02*
D03*
X21306D02*
D03*
X20036D02*
D03*
X18766D02*
D03*
X17496D02*
D03*
X16226D02*
D03*
X14956D02*
D03*
X13686D02*
D03*
D03*
Y19803D02*
D03*
X14956D02*
D03*
X16226D02*
D03*
X17496D02*
D03*
X18766D02*
D03*
X20036D02*
D03*
X21306D02*
D03*
X22576D02*
D03*
X23846D02*
D03*
X25116D02*
D03*
X26386D02*
D03*
X27656D02*
D03*
X28926D02*
D03*
X30196D02*
D03*
D03*
D25*
X12686Y34018D02*
D03*
Y32748D02*
D03*
Y23858D02*
D03*
Y22588D02*
D03*
D03*
D27*
X34934Y13015D02*
D03*
X32934D02*
D03*
X27050Y3282D02*
D03*
X25050D02*
D03*
D33*
X5356Y15376D02*
D03*
Y13376D02*
D03*
X8138Y10419D02*
D03*
Y8419D02*
D03*
X5979Y10419D02*
D03*
Y8419D02*
D03*
X42352Y13376D02*
D03*
Y15376D02*
D03*
X39075Y13376D02*
D03*
Y15376D02*
D03*
X40714Y13376D02*
D03*
Y15376D02*
D03*
X38755Y59944D02*
D03*
Y61944D02*
D03*
X37307Y59944D02*
D03*
Y61944D02*
D03*
X35859Y59944D02*
D03*
Y61944D02*
D03*
X13761Y59944D02*
D03*
Y61944D02*
D03*
X12313Y59944D02*
D03*
Y61944D02*
D03*
X10865Y59944D02*
D03*
Y61944D02*
D03*
X21956Y13372D02*
D03*
Y15372D02*
D03*
X13701Y13376D02*
D03*
Y15376D02*
D03*
D39*
X91317Y12826D02*
D03*
X96397D02*
D03*
X89034Y64714D02*
D03*
X94114D02*
D03*
X99194D02*
D03*
D73*
X42385Y44215D02*
D03*
X39845D02*
D03*
X37305D02*
D03*
X34765D02*
D03*
D77*
X93857Y12826D02*
D03*
D78*
X32004Y60046D02*
D03*
X17479Y57976D02*
D03*
D79*
X20289Y42976D02*
D03*
X21559D02*
D03*
X22829D02*
D03*
X24099D02*
D03*
X25369D02*
D03*
X26639D02*
D03*
X27909D02*
D03*
X29179D02*
D03*
D03*
D80*
X12686Y31478D02*
D03*
Y30208D02*
D03*
Y28938D02*
D03*
Y27668D02*
D03*
Y26398D02*
D03*
Y25128D02*
D03*
D81*
X10378Y14326D02*
D03*
X8421Y15241D02*
D03*
D82*
Y13411D02*
D03*
D83*
X32309Y10871D02*
D03*
D84*
X35357D02*
D03*
D85*
X26924Y11218D02*
D03*
Y9458D02*
D03*
X25070Y11218D02*
D03*
Y9458D02*
D03*
D86*
X16408Y14224D02*
D03*
Y15174D02*
D03*
Y13274D02*
D03*
X18741D02*
D03*
Y14224D02*
D03*
X24871Y6233D02*
D03*
Y7183D02*
D03*
X27203D02*
D03*
Y5283D02*
D03*
D87*
X18741Y15174D02*
D03*
X24871Y5283D02*
D03*
D88*
X21831Y5844D02*
D03*
Y3664D02*
D03*
X14631Y5844D02*
D03*
Y3654D02*
D03*
D89*
X15981Y6724D02*
D03*
X17481D02*
D03*
X20481D02*
D03*
D90*
X11024Y4674D02*
D03*
D91*
X12649D02*
D03*
M02*
