G04*
G04 #@! TF.GenerationSoftware,Altium Limited,Altium Designer,21.2.1 (34)*
G04*
G04 Layer_Color=8421504*
%FSLAX43Y43*%
%MOMM*%
G71*
G04*
G04 #@! TF.SameCoordinates,D37F3DA0-8DBA-475A-B69E-14A0DF471598*
G04*
G04*
G04 #@! TF.FilePolarity,Positive*
G04*
G01*
G75*
%ADD16R,1.000X1.000*%
%ADD17R,1.200X1.200*%
%ADD18R,1.900X1.900*%
%ADD19R,1.700X1.300*%
%ADD20R,1.600X1.400*%
%ADD21R,0.400X1.700*%
%ADD22R,1.300X1.300*%
%ADD23R,1.300X1.300*%
%ADD24R,0.900X2.000*%
%ADD25R,2.000X0.900*%
%ADD26R,1.000X0.900*%
%ADD27R,1.000X0.950*%
G04:AMPARAMS|DCode=28|XSize=1.6mm|YSize=0.7mm|CornerRadius=0.35mm|HoleSize=0mm|Usage=FLASHONLY|Rotation=90.000|XOffset=0mm|YOffset=0mm|HoleType=Round|Shape=RoundedRectangle|*
%AMROUNDEDRECTD28*
21,1,1.600,0.000,0,0,90.0*
21,1,0.900,0.700,0,0,90.0*
1,1,0.700,0.000,0.450*
1,1,0.700,0.000,-0.450*
1,1,0.700,0.000,-0.450*
1,1,0.700,0.000,0.450*
%
%ADD28ROUNDEDRECTD28*%
%ADD29R,0.700X1.600*%
%ADD30O,3.000X1.500*%
%ADD31R,3.000X1.500*%
%ADD32R,1.600X2.000*%
%ADD33R,0.950X1.000*%
%ADD34R,0.700X1.200*%
G04:AMPARAMS|DCode=35|XSize=1.2mm|YSize=0.7mm|CornerRadius=0.35mm|HoleSize=0mm|Usage=FLASHONLY|Rotation=270.000|XOffset=0mm|YOffset=0mm|HoleType=Round|Shape=RoundedRectangle|*
%AMROUNDEDRECTD35*
21,1,1.200,0.000,0,0,270.0*
21,1,0.500,0.700,0,0,270.0*
1,1,0.700,0.000,-0.250*
1,1,0.700,0.000,0.250*
1,1,0.700,0.000,0.250*
1,1,0.700,0.000,-0.250*
%
%ADD35ROUNDEDRECTD35*%
%ADD36O,1.500X3.500*%
%ADD37R,1.600X0.800*%
%ADD38R,3.000X2.100*%
%ADD39O,1.200X4.000*%
%ADD40O,2.500X1.000*%
%ADD41R,1.400X0.600*%
D16*
X82131Y46297D02*
D03*
Y42647D02*
D03*
X75701Y42647D02*
D03*
Y46297D02*
D03*
X81956Y32947D02*
D03*
Y29297D02*
D03*
X75526Y29297D02*
D03*
Y32947D02*
D03*
X33795Y25692D02*
D03*
Y22042D02*
D03*
X40225Y22042D02*
D03*
Y25692D02*
D03*
X28025D02*
D03*
Y22042D02*
D03*
X21595Y22042D02*
D03*
Y25692D02*
D03*
X15820Y25692D02*
D03*
Y22042D02*
D03*
X9390Y22042D02*
D03*
Y25692D02*
D03*
X40225Y36700D02*
D03*
Y33050D02*
D03*
X33795Y33050D02*
D03*
Y36700D02*
D03*
X28020Y36700D02*
D03*
Y33050D02*
D03*
X21590Y33050D02*
D03*
Y36700D02*
D03*
X15820Y36700D02*
D03*
Y33050D02*
D03*
X9390Y33050D02*
D03*
Y36700D02*
D03*
X40225Y47705D02*
D03*
Y44055D02*
D03*
X33795Y44055D02*
D03*
Y47705D02*
D03*
X28020Y47705D02*
D03*
Y44055D02*
D03*
X21590Y44055D02*
D03*
Y47705D02*
D03*
X15820Y47705D02*
D03*
Y44055D02*
D03*
X9390Y44055D02*
D03*
Y47705D02*
D03*
X40230Y58717D02*
D03*
Y55067D02*
D03*
X33800Y55067D02*
D03*
Y58717D02*
D03*
X28025Y58717D02*
D03*
Y55067D02*
D03*
X21595Y55067D02*
D03*
Y58717D02*
D03*
X9395D02*
D03*
Y55067D02*
D03*
X15825Y55067D02*
D03*
Y58717D02*
D03*
D17*
X78401Y14022D02*
D03*
X76641D02*
D03*
X78401Y12117D02*
D03*
X76641D02*
D03*
X82731Y13747D02*
D03*
X84491D02*
D03*
X84376Y23397D02*
D03*
X82616D02*
D03*
X84366Y25270D02*
D03*
X82606D02*
D03*
X79516Y38492D02*
D03*
X77756D02*
D03*
D18*
X59719Y64667D02*
D03*
X62119D02*
D03*
D19*
X57388Y64670D02*
D03*
X64448D02*
D03*
D20*
X57719Y62217D02*
D03*
X64119D02*
D03*
D21*
X59619Y61792D02*
D03*
X60269D02*
D03*
X60919D02*
D03*
X61569D02*
D03*
X62219D02*
D03*
D22*
X60350Y38702D02*
D03*
X62193Y38732D02*
D03*
Y36897D02*
D03*
Y35062D02*
D03*
X64036Y38702D02*
D03*
D23*
X60350Y36867D02*
D03*
X60358Y35062D02*
D03*
X64028D02*
D03*
X64036Y36867D02*
D03*
D24*
X54693Y29397D02*
D03*
D03*
X55963D02*
D03*
X57233D02*
D03*
X59773D02*
D03*
X61043D02*
D03*
X62313D02*
D03*
X63583D02*
D03*
X64853D02*
D03*
X66123D02*
D03*
X67393D02*
D03*
X68663D02*
D03*
X69933D02*
D03*
X71203D02*
D03*
Y46397D02*
D03*
D03*
X69933D02*
D03*
X68663D02*
D03*
X67393D02*
D03*
X66123D02*
D03*
X64853D02*
D03*
X63583D02*
D03*
X62313D02*
D03*
X61043D02*
D03*
X59773D02*
D03*
X58503D02*
D03*
X57233D02*
D03*
X55963D02*
D03*
X54693D02*
D03*
X58503Y29397D02*
D03*
D25*
X72203Y32182D02*
D03*
D03*
Y33452D02*
D03*
Y42342D02*
D03*
Y43612D02*
D03*
D26*
Y34722D02*
D03*
Y35992D02*
D03*
Y37262D02*
D03*
Y38532D02*
D03*
Y39802D02*
D03*
Y41072D02*
D03*
D27*
X77516Y36332D02*
D03*
X79516D02*
D03*
X50453Y3996D02*
D03*
X48453D02*
D03*
X65083Y57057D02*
D03*
X63083D02*
D03*
X63141Y51696D02*
D03*
X65141D02*
D03*
X48453Y5724D02*
D03*
X50453D02*
D03*
X36306Y65003D02*
D03*
X38306D02*
D03*
X33310Y65003D02*
D03*
X31310D02*
D03*
X28306Y65003D02*
D03*
X26306D02*
D03*
X23310Y65003D02*
D03*
X21310D02*
D03*
X18310Y65003D02*
D03*
X16310D02*
D03*
X13310D02*
D03*
X11310D02*
D03*
D28*
X82597Y19555D02*
D03*
X84497D02*
D03*
Y17223D02*
D03*
X83547D02*
D03*
D29*
X82597D02*
D03*
D30*
X71261Y12012D02*
D03*
Y14552D02*
D03*
Y17092D02*
D03*
Y19632D02*
D03*
Y22172D02*
D03*
D31*
Y24712D02*
D03*
D32*
X49642Y8760D02*
D03*
D33*
X84261Y42742D02*
D03*
Y40742D02*
D03*
X84258Y34910D02*
D03*
Y32910D02*
D03*
X84251Y44487D02*
D03*
Y46487D02*
D03*
X84256Y31127D02*
D03*
Y29127D02*
D03*
X91555Y13897D02*
D03*
Y11897D02*
D03*
X91581Y61030D02*
D03*
Y63030D02*
D03*
D34*
X65054Y55306D02*
D03*
D35*
X63224D02*
D03*
X64139Y53349D02*
D03*
D36*
X69108Y53898D02*
D03*
X71648D02*
D03*
X74188D02*
D03*
X76728D02*
D03*
X79268D02*
D03*
X81808D02*
D03*
D37*
X52087Y65304D02*
D03*
Y64054D02*
D03*
Y62804D02*
D03*
Y61554D02*
D03*
Y60304D02*
D03*
Y59054D02*
D03*
Y57804D02*
D03*
Y56554D02*
D03*
Y55304D02*
D03*
Y54054D02*
D03*
D38*
X49187Y51504D02*
D03*
Y67854D02*
D03*
D39*
X89026Y10572D02*
D03*
X94106D02*
D03*
X99186D02*
D03*
Y64722D02*
D03*
X94106D02*
D03*
X89026D02*
D03*
D40*
X69132Y51013D02*
D03*
D41*
X26886Y13159D02*
D03*
Y14759D02*
D03*
X22786Y13159D02*
D03*
Y14759D02*
D03*
Y11406D02*
D03*
Y9806D02*
D03*
X26886Y11406D02*
D03*
Y9806D02*
D03*
M02*
