M48
;Layer_Color=9474304
;FILE_FORMAT=4:3
METRIC,LZ
;TYPE=PLATED
T1F00S00C0.500
T2F00S00C1.000
;TYPE=NON_PLATED
T3F00S00C0.800
T4F00S00C1.500
T5F00S00C2.000
%
T01
X0007391Y0018161
X0008992Y0017932
X000889Y001938
X0007899Y0021615
X0011937Y0015241
X0016408Y0012243
X001872
Y0010033
X0021209Y0012573
X0025097Y0013153
X0028968Y0013767
X0031633Y0013015
X0031396Y0010902
X0033034Y0009003
X0034366Y0009093
X0028397Y0009398
X0028372Y0005283
X002705Y0003278
X0024079Y0004228
X0023876Y0018288
X0025121Y0019202
X0024974Y0022042
X0029362Y0022987
X0031674Y001821
X0032766Y0017323
X0032944Y0019101
X0031293Y001651
X0027635Y0016485
X0022581Y0017374
X0020015Y0016408
X0029743Y0029794
X0030531Y003081
X0023851Y0038913
X0016231Y0038938
X0010617Y0035052
X0008001Y0034036
X0007849Y0032756
X0040225Y0025663
X0050524Y0025678
X0049635Y0024738
X00585Y002832
X005977
X006104Y0029996
X006231Y0029146
X006485Y0028218
X006993Y0028308
X0068608Y0031763
X0067392Y0030846
X0057255Y0030047
X0049642Y000876
X0081131Y0017296
X008611Y0018515
X0090148Y0017144
X0091571Y0018312
X0084255Y0027202
X008423Y0029107
X0081336Y0027192
X0080852Y0037362
X0082011Y0040817
X0091554Y0056665
X009406Y0061568
X0089031Y0061721
X0099216Y0061416
X0076737Y0053897
X0074172Y0051103
X0071203Y005013
X0066606Y0050567
X006311Y0050597
X0062945Y005946
X00585Y0059612
Y0057758
X0053886Y0055294
X0051699Y0056557
X0050597Y0060304
X0050397Y0061543
X005136Y0065304
X0042393Y0055067
X0042367Y0042189
X0039853Y0042164
X0066575Y0057035
X0038303Y0065
X003331Y0065003
X0028296Y0064993
X0023318Y0065011
X0018324Y0065014
X001331Y0065003
X0011963Y0043891
X001303Y0040538
X0015291
X0017501Y0039802
X0018771Y0039853
X0020066Y0040411
X00254Y0040361
X0026645Y0041275
X0027915Y0040411
X0029185Y0042926
X0030632Y0044069
X0033045
X0034722Y0042139
X0037313Y0042189
T02
X0071157Y0012013
X0071261Y0014552
X0071236Y0017067
X0071261Y0019632
Y0022172
Y0024712
T03
X0016737Y000475
X0019737
T04
X0052586Y0003397
Y0071892
T05
X0093796Y0018346
Y0046146
M30
